  0
SECTION
  2
HEADER
  9
$ACADVER
  1
AC1009
  9
$INSBASE
 10
0.0
 20
0.0
 30
0.0
  9
$EXTMIN
 10
7.2499999999999956
 20
13.898910500487631
 30
-0.00000001
  9
$EXTMAX
 10
48.23919874697971
 20
60.623237273991649
 30
0.00000001
  9
$LIMMIN
 10
0.0
 20
0.0
  9
$LIMMAX
 10
51.009999999999998
 20
66.010000000000005
  9
$ORTHOMODE
 70
     0
  9
$REGENMODE
 70
     1
  9
$FILLMODE
 70
     1
  9
$QTEXTMODE
 70
     0
  9
$MIRRTEXT
 70
     1
  9
$DRAGMODE
 70
     2
  9
$LTSCALE
 40
1.0
  9
$OSMODE
 70
     0
  9
$ATTMODE
 70
     1
  9
$TEXTSIZE
 40
1.5
  9
$TRACEWID
 40
0.05
  9
$TEXTSTYLE
  7
STANDARD
  9
$CLAYER
  8
0
  9
$CELTYPE
  6
BYLAYER
  9
$CECOLOR
 62
   256
  9
$DIMSCALE
 40
1.0
  9
$DIMASZ
 40
0.18
  9
$DIMEXO
 40
0.0625
  9
$DIMDLI
 40
0.38
  9
$DIMRND
 40
0.0
  9
$DIMDLE
 40
0.0
  9
$DIMEXE
 40
0.18
  9
$DIMTP
 40
0.0
  9
$DIMTM
 40
0.0
  9
$DIMTXT
 40
0.75
  9
$DIMCEN
 40
0.09
  9
$DIMTSZ
 40
0.0
  9
$DIMTOL
 70
     0
  9
$DIMLIM
 70
     0
  9
$DIMTIH
 70
     1
  9
$DIMTOH
 70
     1
  9
$DIMSE1
 70
     0
  9
$DIMSE2
 70
     0
  9
$DIMTAD
 70
     0
  9
$DIMZIN
 70
     0
  9
$DIMBLK
  1

  9
$DIMASO
 70
     1
  9
$DIMSHO
 70
     1
  9
$DIMPOST
  1

  9
$DIMAPOST
  1

  9
$DIMALT
 70
     0
  9
$DIMALTD
 70
     2
  9
$DIMALTF
 40
25.399999999999999
  9
$DIMLFAC
 40
1.0
  9
$DIMTOFL
 70
     0
  9
$DIMTVP
 40
0.0
  9
$DIMTIX
 70
     0
  9
$DIMSOXD
 70
     0
  9
$DIMSAH
 70
     0
  9
$DIMBLK1
  1

  9
$DIMBLK2
  1

  9
$DIMSTYLE
  2
STANDARD
  9
$DIMCLRD
 70
     0
  9
$DIMCLRE
 70
     0
  9
$DIMCLRT
 70
     0
  9
$DIMTFAC
 40
1.0
  9
$DIMGAP
 40
0.09
  9
$LUNITS
 70
     2
  9
$LUPREC
 70
     3
  9
$SKETCHINC
 40
0.1
  9
$FILLETRAD
 40
6.0
  9
$AUNITS
 70
     0
  9
$AUPREC
 70
     3
  9
$MENU
  1
.
  9
$ELEVATION
 40
0.0
  9
$PELEVATION
 40
0.0
  9
$THICKNESS
 40
0.0
  9
$LIMCHECK
 70
     0
  9
$BLIPMODE
 70
     0
  9
$CHAMFERA
 40
0.125
  9
$CHAMFERB
 40
0.125
  9
$SKPOLY
 70
     0
  9
$TDCREATE
 40
2455642.6895967941
  9
$TDUPDATE
 40
2455642.6895967941
  9
$TDINDWG
 40
0.0000016204
  9
$TDUSRTIMER
 40
0.0000016204
  9
$USRTIMER
 70
     1
  9
$ANGBASE
 50
0.0
  9
$ANGDIR
 70
     0
  9
$PDMODE
 70
     0
  9
$PDSIZE
 40
0.0
  9
$PLINEWID
 40
0.0
  9
$COORDS
 70
     0
  9
$SPLFRAME
 70
     0
  9
$SPLINETYPE
 70
     6
  9
$SPLINESEGS
 70
     8
  9
$ATTDIA
 70
     0
  9
$ATTREQ
 70
     1
  9
$HANDLING
 70
 22529
  9
$HANDSEED
  5
265
  9
$SURFTAB1
 70
     6
  9
$SURFTAB2
 70
     6
  9
$SURFTYPE
 70
     6
  9
$SURFU
 70
     6
  9
$SURFV
 70
     6
  9
$UCSNAME
  2

  9
$UCSORG
 10
0.0
 20
0.0
 30
0.0
  9
$UCSXDIR
 10
1.0
 20
0.0
 30
0.0
  9
$UCSYDIR
 10
0.0
 20
1.0
 30
0.0
  9
$PUCSNAME
  2

  9
$PUCSORG
 10
0.0
 20
0.0
 30
0.0
  9
$PUCSXDIR
 10
1.0
 20
0.0
 30
0.0
  9
$PUCSYDIR
 10
0.0
 20
1.0
 30
0.0
  9
$USERI1
 70
     0
  9
$USERI2
 70
     0
  9
$USERI3
 70
     0
  9
$USERI4
 70
     0
  9
$USERI5
 70
     0
  9
$USERR1
 40
0.0
  9
$USERR2
 40
0.0
  9
$USERR3
 40
0.0
  9
$USERR4
 40
0.0
  9
$USERR5
 40
0.0
  9
$WORLDVIEW
 70
     1
  9
$SHADEDGE
 70
     3
  9
$SHADEDIF
 70
    70
  9
$TILEMODE
 70
     1
  9
$MAXACTVP
 70
    64
  9
$PLIMCHECK
 70
     0
  9
$PEXTMIN
 10
1.0000000000000000E+020
 20
1.0000000000000000E+020
 30
1.0000000000000000E+020
  9
$PEXTMAX
 10
-1.0000000000000000E+020
 20
-1.0000000000000000E+020
 30
-1.0000000000000000E+020
  9
$PLIMMIN
 10
0.0
 20
0.0
  9
$PLIMMAX
 10
12.0
 20
9.0
  9
$UNITMODE
 70
     0
  9
$VISRETAIN
 70
     1
  9
$PLINEGEN
 70
     0
  9
$PSLTSCALE
 70
     1
  0
ENDSEC
  0
SECTION
  2
TABLES
  0
TABLE
  2
VPORT
 70
     1
  0
VPORT
  2
*ACTIVE
 70
     0
 10
0.0
 20
0.0
 11
1.0
 21
1.0
 12
25.504999999999999
 22
33.005000000000003
 13
0.0
 23
0.0
 14
1.0
 24
1.0
 15
0.0
 25
0.0
 16
0.0
 26
0.0
 36
1.0
 17
0.0
 27
0.0
 37
0.0
 40
66.010000000000005
 41
0.7727617027723073
 42
50.0
 43
0.0
 44
0.0
 50
0.0
 51
0.0
 71
     0
 72
   100
 73
     1
 74
     1
 75
     0
 76
     0
 77
     0
 78
     0
  0
ENDTAB
  0
TABLE
  2
LTYPE
 70
    40
  0
LTYPE
  2
CONTINUOUS
 70
     0
  3
Solid line
 72
    65
 73
     0
 40
0.0
  0
LTYPE
  2
HIDDEN
 70
     0
  3
_ _ _ _ _ _ _ _ _ _ _ _ _ _ 
 72
    65
 73
     2
 40
0.375
 49
0.25
 49
-0.125
  0
LTYPE
  2
DASHED
 70
     0
  3
__ __ __ __ __ __ __ __ __ 
 72
    65
 73
     2
 40
0.75
 49
0.5
 49
-0.25
  0
LTYPE
  2
CENTER
 70
     0
  3
____ _ ____ _ ____ _ ____ _ 
 72
    65
 73
     4
 40
2.0
 49
1.25
 49
-0.25
 49
0.25
 49
-0.25
  0
LTYPE
  2
PHANTOM
 70
     0
  3
_____ _ _ _____ _ _ _____ _ _ 
 72
    65
 73
     6
 40
2.5
 49
1.25
 49
-0.25
 49
0.25
 49
-0.25
 49
0.25
 49
-0.25
  0
LTYPE
  2
DOT
 70
     0
  3
...........................
 72
    65
 73
     2
 40
0.25
 49
0.0
 49
-0.25
  0
LTYPE
  2
DASHDOT
 70
     0
  3
__ . __ . __ . __ . __ . __ . 
 72
    65
 73
     4
 40
1.0
 49
0.5
 49
-0.25
 49
0.0
 49
-0.25
  0
LTYPE
  2
DIVIDE
 70
     0
  3
__ . . __ . . __ . . __ . . 
 72
    65
 73
     6
 40
1.25
 49
0.5
 49
-0.25
 49
0.0
 49
-0.25
 49
0.0
 49
-0.25
  0
LTYPE
  2
BORDER
 70
     0
  3
__ __ . __ __ . __ __ . __ __ .
 72
    65
 73
     6
 40
1.75
 49
0.5
 49
-0.25
 49
0.5
 49
-0.25
 49
0.0
 49
-0.25
  0
LTYPE
  2
BORDER2
 70
     0
  3
Border (.5x) __.__.__.__.__.__.
 72
    65
 73
     6
 40
0.875
 49
0.25
 49
-0.125
 49
0.25
 49
-0.125
 49
0.0
 49
-0.125
  0
LTYPE
  2
BORDERX2
 70
     0
  3
Border (2x) ____  ____  .  ____
 72
    65
 73
     6
 40
3.5
 49
1.0
 49
-0.5
 49
1.0
 49
-0.5
 49
0.0
 49
-0.5
  0
LTYPE
  2
CENTER2
 70
     0
  3
Center (.5x) ___ _ ___ _ ___ _ 
 72
    65
 73
     4
 40
1.125
 49
0.7500000000000001
 49
-0.125
 49
0.125
 49
-0.125
  0
LTYPE
  2
CENTERX2
 70
     0
  3
Center (2x) ________  __  _____
 72
    65
 73
     4
 40
4.0
 49
2.5
 49
-0.5
 49
0.5
 49
-0.5
  0
LTYPE
  2
DASHDOT2
 70
     0
  3
Dash dot (.5x) _._._._._._._._.
 72
    65
 73
     4
 40
0.5
 49
0.25
 49
-0.125
 49
0.0
 49
-0.125
  0
LTYPE
  2
DASHDOTX2
 70
     0
  3
Dash dot (2x) ____  .  ____  . 
 72
    65
 73
     4
 40
2.0
 49
1.0
 49
-0.5
 49
0.0
 49
-0.5
  0
LTYPE
  2
DASHED2
 70
     0
  3
Dashed (.5x) _ _ _ _ _ _ _ _ _ 
 72
    65
 73
     2
 40
0.375
 49
0.25
 49
-0.125
  0
LTYPE
  2
DASHEDX2
 70
     0
  3
Dashed (2x) ____  ____  ____  _
 72
    65
 73
     2
 40
1.5
 49
1.0
 49
-0.5
  0
LTYPE
  2
DIVIDE2
 70
     0
  3
Divide (.5x) __..__..__..__..__
 72
    65
 73
     6
 40
0.625
 49
0.25
 49
-0.125
 49
0.0
 49
-0.125
 49
0.0
 49
-0.125
  0
LTYPE
  2
DIVIDEX2
 70
     0
  3
Divide (2x) ________  .  .  ___
 72
    65
 73
     6
 40
2.5
 49
1.0
 49
-0.5
 49
0.0
 49
-0.5
 49
0.0
 49
-0.5
  0
LTYPE
  2
DOT2
 70
     0
  3
Dot (.5x) .....................
 72
    65
 73
     2
 40
0.125
 49
0.0
 49
-0.125
  0
LTYPE
  2
DOTX2
 70
     0
  3
Dot (2x) .  .  .  .  .  .  .  .
 72
    65
 73
     2
 40
0.5
 49
0.0
 49
-0.5
  0
LTYPE
  2
HIDDEN2
 70
     0
  3
Hidden (.5x) _ _ _ _ _ _ _ _ _ 
 72
    65
 73
     2
 40
0.1875
 49
0.125
 49
-0.0625
  0
LTYPE
  2
HIDDENX2
 70
     0
  3
Hidden (2x) ____ ____ ____ ____
 72
    65
 73
     2
 40
0.75
 49
0.5
 49
-0.25
  0
LTYPE
  2
PHANTOM2
 70
     0
  3
Phantom (.5x) ___ _ _ ___ _ _ _
 72
    65
 73
     6
 40
1.25
 49
0.6250000000000001
 49
-0.125
 49
0.125
 49
-0.125
 49
0.125
 49
-0.125
  0
LTYPE
  2
PHANTOMX2
 70
     0
  3
Phantom (2x) ____________    __
 72
    65
 73
     6
 40
5.0
 49
2.5
 49
-0.5
 49
0.5
 49
-0.5
 49
0.5
 49
-0.5
  0
LTYPE
  2
DOTS
 70
     0
  3
Dots - - - - - - - - - - - - - 
 72
    65
 73
     2
 40
0.1
 49
0.05
 49
-0.05
  0
LTYPE
  2
ACAD_ISO02W100
 70
     0
  3
__ __ __ __ __ __ __ __ __ __ _
 72
    65
 73
     2
 40
15.0
 49
12.0
 49
-3.0
  0
LTYPE
  2
ACAD_ISO03W100
 70
     0
  3
__    __    __    __    __    _
 72
    65
 73
     2
 40
30.0
 49
12.0
 49
-18.0
  0
LTYPE
  2
ACAD_ISO04W100
 70
     0
  3
____ . ____ . ____ . ____ . ___
 72
    65
 73
     4
 40
30.5
 49
24.0
 49
-3.0
 49
0.5
 49
-3.0
  0
LTYPE
  2
ACAD_ISO05W100
 70
     0
  3
____ .. ____ .. ____ .. ____ ..
 72
    65
 73
     6
 40
34.0
 49
24.0
 49
-3.0
 49
0.5
 49
-3.0
 49
0.5
 49
-3.0
  0
LTYPE
  2
ACAD_ISO06W100
 70
     0
  3
____ ... ____ ... ____ ... ____
 72
    65
 73
     6
 40
34.0
 49
24.0
 49
-3.0
 49
0.5
 49
-3.0
 49
0.5
 49
-3.0
  0
LTYPE
  2
ACAD_ISO07W100
 70
     0
  3
. . . . . . . . . . . . . . . .
 72
    65
 73
     2
 40
3.5
 49
0.5
 49
-3.0
  0
LTYPE
  2
ACAD_ISO08W100
 70
     0
  3
____ __ ____ __ ____ __ ____ __
 72
    65
 73
     4
 40
36.0
 49
24.0
 49
-3.0
 49
6.0
 49
-3.0
  0
LTYPE
  2
ACAD_ISO09W100
 70
     0
  3
____ __ __ ____ __ __ ____ __ _
 72
    65
 73
     6
 40
45.0
 49
24.0
 49
-3.0
 49
6.0
 49
-3.0
 49
6.0
 49
-3.0
  0
LTYPE
  2
ACAD_ISO10W100
 70
     0
  3
__ . __ . __ . __ . __ . __ . _
 72
    65
 73
     4
 40
18.5
 49
12.0
 49
-3.0
 49
0.5
 49
-3.0
  0
LTYPE
  2
ACAD_ISO11W100
 70
     0
  3
__ __ . __ __ . __ __ . __ __ .
 72
    65
 73
     6
 40
33.5
 49
12.0
 49
-3.0
 49
12.0
 49
-3.0
 49
0.5
 49
-3.0
  0
LTYPE
  2
ACAD_ISO12W100
 70
     0
  3
__ . . __ . . __ . . __ . . __ 
 72
    65
 73
     6
 40
22.0
 49
12.0
 49
-3.0
 49
0.5
 49
-3.0
 49
0.5
 49
-3.0
  0
LTYPE
  2
ACAD_ISO13W100
 70
     0
  3
__ __ . . __ __ . . __ __ . . _
 72
    65
 73
     6
 40
33.5
 49
12.0
 49
-3.0
 49
12.0
 49
-3.0
 49
0.5
 49
-3.0
  0
LTYPE
  2
ACAD_ISO14W100
 70
     0
  3
__ . . . __ . . . __ . . . __ .
 72
    65
 73
     6
 40
22.0
 49
12.0
 49
-3.0
 49
0.5
 49
-3.0
 49
0.5
 49
-3.0
  0
LTYPE
  2
ACAD_ISO15W100
 70
     0
  3
__ __ . . . __ __ . . . __ __ .
 72
    65
 73
     6
 40
33.5
 49
12.0
 49
-3.0
 49
12.0
 49
-3.0
 49
0.5
 49
-3.0
  0
ENDTAB
  0
TABLE
  2
LAYER
 70
     6
  0
LAYER
  2
0
 70
     0
 62
     7
  6
CONTINUOUS
  0
LAYER
  2
1
 70
     0
 62
     7
  6
CONTINUOUS
  0
LAYER
  2
1BLACK
 70
     0
 62
     7
  6
CONTINUOUS
  0
LAYER
  2
2RED
 70
     0
 62
     1
  6
CONTINUOUS
  0
LAYER
  2
3BLUE
 70
     0
 62
     5
  6
CONTINUOUS
  0
LAYER
  2
4DARKYELLOW
 70
     0
 62
    54
  6
CONTINUOUS
  0
ENDTAB
  0
TABLE
  2
STYLE
 70
     4
  0
STYLE
  2
STANDARD
 70
     0
 40
0.0
 41
1.0
 50
0.0
 71
     0
 42
1.5
  3
txt
  4

  0
STYLE
  2
ITALIC
 70
     0
 40
0.0
 41
1.0
 50
0.0
 71
     0
 42
1.5
  3
ITALIC
  4

  0
STYLE
  2
SIMPLEX
 70
     0
 40
0.0
 41
1.0
 50
0.0
 71
     0
 42
1.5
  3
SIMPLEX
  4

  0
STYLE
  2
COMPLEX
 70
     0
 40
0.0
 41
1.0
 50
0.0
 71
     0
 42
1.5
  3
COMPLEX
  4

  0
ENDTAB
  0
TABLE
  2
VIEW
 70
     0
  0
ENDTAB
  0
TABLE
  2
UCS
 70
     0
  0
ENDTAB
  0
TABLE
  2
APPID
 70
     1
  0
APPID
  2
ACAD
 70
     0
  0
ENDTAB
  0
TABLE
  2
DIMSTYLE
 70
     1
  0
DIMSTYLE
  2
STANDARD
 70
     0
  3

  4

  5

  6

  7

 40
1.0
 41
0.18
 42
0.0625
 43
0.38
 44
0.18
 45
0.0
 46
0.0
 47
0.0
 48
0.0
140
0.18
141
0.09
142
0.0
143
25.399999999999999
144
1.0
145
0.0
146
1.0
147
0.09
 71
     0
 72
     0
 73
     1
 74
     1
 75
     0
 76
     0
 77
     0
 78
     0
170
     0
171
     2
172
     0
173
     0
174
     0
175
     0
176
     0
177
     0
178
     0
  0
ENDTAB
  0
ENDSEC
  0
SECTION
  2
BLOCKS
  0
BLOCK
  8
0
  2
$MODEL_SPACE
 70
     0
 10
0.0
 20
0.0
 30
0.0
  3
$MODEL_SPACE
  1

  0
ENDBLK
  5
21
  8
0
  0
BLOCK
 67
     1
  8
0
  2
$PAPER_SPACE
 70
     0
 10
0.0
 20
0.0
 30
0.0
  3
$PAPER_SPACE
  1

  0
ENDBLK
  5
1D
 67
     1
  8
0
  0
BLOCK
  8
0
  2
LONGARROW
 70
     0
 10
0.0
 20
0.0
 30
0.0
  3
LONGARROW
  1

  0
POLYLINE
  5
11F
  8
1
  6
CONTINUOUS
 62
     0
 66
     1
 10
0.0
 20
0.0
 30
0.0
 70
     1
  0
VERTEX
  5
25B
  8
1
  6
CONTINUOUS
 62
     0
 10
0.0
 20
0.0
 30
0.0
  0
VERTEX
  5
25C
  8
1
  6
CONTINUOUS
 62
     0
 10
2.0
 20
-0.25
 30
0.0
  0
VERTEX
  5
25D
  8
1
  6
CONTINUOUS
 62
     0
 10
2.0
 20
0.25
 30
0.0
  0
SEQEND
  5
25E
  8
1
  6
CONTINUOUS
 62
     0
  0
INSERT
  5
120
  8
1
  6
CONTINUOUS
 62
     0
  2
*U2
 10
0.0
 20
0.0
 30
0.0
1001
ACAD
1002
{
1000
R14_HATCH_DATA
1000
120
1011
1.0
1021
-1.#QNAN00000000000E+000
1031
0.0
1021
0.0
1031
0.0
1011
0.0
1021
-1.#QNAN00000000000E+000
1031
0.0
1021
1.0
1031
0.0
1011
0.0
1021
-1.#QNAN00000000000E+000
1031
0.0
1021
0.0
1031
1.0
1040
0.0
1010
0.0
1020
0.0
1030
1.0
1000
SOLID
1070
     1
1070
     1
1071
        1
1071
        1
1071
        3
1070
     1
1040
0.0
1040
0.0
1040
2.0
1040
-0.25
1070
     1
1040
2.0
1040
-0.25
1040
2.0
1040
0.25
1070
     1
1040
2.0
1040
0.25
1040
0.0
1040
0.0
1071
        1
1005
11F
1070
     0
1070
     1
1071
        1
1040
0.0
1040
0.0
1040
0.0
1002
}
  0
ENDBLK
  5
122
  8
0
  0
BLOCK
  8
0
  2
*U2
 70
     1
 10
0.0
 20
0.0
 30
0.0
  3
*U2
  1

  0
SOLID
  5
260
  8
1
  6
CONTINUOUS
 62
     0
 10
1.333333333333333
 20
0.0
 30
0.0
 11
0.0
 21
0.0
 31
0.0
 12
2.0
 22
-0.25
 32
0.0
 13
2.0
 23
-0.25
 33
0.0
  0
SOLID
  5
261
  8
1
  6
CONTINUOUS
 62
     0
 10
1.333333333333333
 20
0.0
 30
0.0
 11
2.0
 21
-0.25
 31
0.0
 12
2.0
 22
0.25
 32
0.0
 13
2.0
 23
0.25
 33
0.0
210
0.0
220
0.0
230
1.0
  0
SOLID
  5
262
  8
1
  6
CONTINUOUS
 62
     0
 10
1.333333333333333
 20
0.0
 30
0.0
 11
2.0
 21
0.25
 31
0.0
 12
0.0
 22
0.0
 32
0.0
 13
0.0
 23
0.0
 33
0.0
  0
ENDBLK
  5
264
  8
0
  0
ENDSEC
  0
SECTION
  2
ENTITIES
  0
LINE
  5
57
  8
1BLACK
 10
28.448878524538671
 20
47.598237273991643
 30
0.0
 11
28.44853159388845
 21
45.902596369297612
 31
0.0
  0
LINE
  5
58
  8
3BLUE
 10
13.594749999999999
 20
55.998237273991649
 30
0.0
 11
13.594749999999999
 21
56.373237273991649
 31
0.0
  0
LINE
  5
59
  8
3BLUE
 10
14.3125
 20
55.998237273991649
 30
0.0
 11
13.4375
 21
55.998237273991649
 31
0.0
  0
LINE
  5
5A
  8
3BLUE
 10
14.3125
 20
55.748237273991649
 30
0.0
 11
14.3125
 21
55.998237273991649
 31
0.0
  0
LINE
  5
5B
  8
3BLUE
 10
13.4375
 20
55.748237273991649
 30
0.0
 11
13.4375
 21
55.998237273991649
 31
0.0
  0
LINE
  5
5C
  8
3BLUE
 10
14.15524999999999
 20
55.998237273991649
 30
0.0
 11
14.15524999999999
 21
56.373237273991649
 31
0.0
  0
CIRCLE
  5
5D
  8
2RED
 10
42.149412734469358
 20
47.793386570310801
 30
0.0
 40
0.5
  0
LINE
  5
5E
  8
3BLUE
 10
36.489198746979717
 20
42.418571454306857
 30
0.0
 11
36.86419874697971
 21
42.418571454306857
 31
0.0
  0
LINE
  5
5F
  8
3BLUE
 10
36.489198746979717
 20
37.231880314566418
 30
0.0
 11
36.86419874697971
 21
37.231880314566418
 31
0.0
  0
LINE
  5
60
  8
2RED
 10
36.489198746979717
 20
42.358571454306862
 30
0.0
 11
36.11419874697971
 21
42.358571454306862
 31
0.0
  0
LINE
  5
61
  8
1
 10
25.239198746979721
 20
16.023910500487631
 30
0.0
 11
35.61419874697971
 21
16.023910500487631
 31
0.0
  0
LINE
  5
62
  8
1
 10
31.397164069186459
 20
16.148910500487631
 30
0.0
 11
35.61419874697971
 21
16.148910500487631
 31
0.0
  0
LINE
  5
63
  8
1BLACK
  6
CONTINUOUS
 10
12.75
 20
15.648910500487631
 30
0.0
 11
15.0
 21
15.648910500487631
 31
0.0
  0
LINE
  5
64
  8
1
  6
HIDDEN
 62
     7
 10
35.61419874697971
 20
16.14891050048762
 30
0.0
 11
41.397164069186474
 21
16.148910500487641
 31
0.0
  0
LINE
  5
65
  8
1
  6
CONTINUOUS
 62
     7
 10
35.61419874697971
 20
13.898910500487631
 30
0.0
 11
45.239198746979717
 21
13.898910500487631
 31
0.0
  0
LINE
  5
66
  8
1
  6
CONTINUOUS
 62
     7
 10
45.239198746979717
 20
13.898910500487631
 30
0.0
 11
45.239198746979717
 21
17.523910500487631
 31
0.0
  0
LINE
  5
67
  8
1
  6
CONTINUOUS
 62
     7
 10
38.48919874697971
 20
21.648910500487631
 30
0.0
 11
38.48919874697971
 21
27.898910500487631
 31
0.0
  0
LINE
  5
68
  8
1
  6
CONTINUOUS
 62
     7
 10
37.86419874697971
 20
21.648910500487631
 30
0.0
 11
37.86419874697971
 21
27.898910500487631
 31
0.0
  0
LINE
  5
69
  8
1
  6
HIDDEN
 62
     7
 10
35.61419874697971
 20
14.523910500487631
 30
0.0
 11
44.614198746979717
 21
14.523910500487631
 31
0.0
  0
LINE
  5
6A
  8
1
  6
CONTINUOUS
 62
     7
 10
44.614198746979717
 20
17.523910500487631
 30
0.0
 11
45.239198746979717
 21
17.523910500487631
 31
0.0
  0
LINE
  5
6B
  8
2RED
 10
37.48919874697971
 20
21.898910500487631
 30
0.0
 11
37.48919874697971
 21
23.273910500487631
 31
0.0
  0
LINE
  5
6C
  8
2RED
 10
37.48919874697971
 20
21.898910500487631
 30
0.0
 11
37.86419874697971
 21
21.898910500487641
 31
0.0
  0
LINE
  5
6D
  8
2RED
 10
37.48919874697971
 20
23.273910500487631
 30
0.0
 11
37.86419874697971
 21
23.273910500487631
 31
0.0
  0
LINE
  5
6E
  8
2RED
 10
37.86419874697971
 20
21.898910500487641
 30
0.0
 11
37.86419874697971
 21
23.273910500487631
 31
0.0
  0
LINE
  5
6F
  8
2RED
 10
37.48919874697971
 20
27.773910500487631
 30
0.0
 11
37.86419874697971
 21
27.773910500487631
 31
0.0
  0
LINE
  5
70
  8
2RED
 10
37.48919874697971
 20
26.398910500487631
 30
0.0
 11
37.48919874697971
 21
27.773910500487631
 31
0.0
  0
LINE
  5
71
  8
2RED
 10
37.48919874697971
 20
26.398910500487631
 30
0.0
 11
37.86419874697971
 21
26.398910500487631
 31
0.0
  0
LINE
  5
72
  8
1
 10
37.86419874697971
 20
21.648910500487631
 30
0.0
 11
38.48919874697971
 21
21.648910500487631
 31
0.0
  0
LINE
  5
73
  8
1
  6
HIDDEN
 62
     7
 10
35.61419874697971
 20
16.77391050048762
 30
0.0
 11
41.397164069186474
 21
16.773910500487641
 31
0.0
  0
LINE
  5
74
  8
1
 10
44.614198746979717
 20
14.523910500487631
 30
0.0
 11
45.239198746979717
 21
14.523910500487631
 31
0.0
  0
LINE
  5
75
  8
1
  6
HIDDEN
 10
41.397164069186474
 20
16.148910500487631
 30
0.0
 11
41.397164069186474
 21
16.773910500487631
 31
0.0
  0
LINE
  5
76
  8
1
 10
35.61419874697971
 20
13.898910500487631
 30
0.0
 11
35.61419874697971
 21
17.023910500487631
 31
0.0
  0
LINE
  5
77
  8
1
 10
37.86419874697971
 20
27.898910500487631
 30
0.0
 11
41.489198746979717
 21
27.898910500487631
 31
0.0
  0
LINE
  5
78
  8
1
 10
25.239198746979721
 20
13.898910500487631
 30
0.0
 11
25.239198746979721
 21
16.023910500487631
 31
0.0
  0
LINE
  5
79
  8
1
 10
35.61419874697971
 20
13.898910500487631
 30
0.0
 11
25.239198746979721
 21
13.898910500487631
 31
0.0
  0
LINE
  5
7A
  8
1
 10
25.239198746979721
 20
14.523910500487631
 30
0.0
 11
35.61419874697971
 21
14.523910500487631
 31
0.0
  0
LINE
  5
7B
  8
1
 10
31.397164069186459
 20
16.148910500487631
 30
0.0
 11
31.397164069186459
 21
16.773910500487631
 31
0.0
  0
LINE
  5
7C
  8
1
 10
35.61419874697971
 20
16.773910500487631
 30
0.0
 11
31.397164069186459
 21
16.773910500487631
 31
0.0
  0
LINE
  5
7D
  8
1
  6
HIDDEN
 10
35.61419874697971
 20
16.023910500487631
 30
0.0
 11
44.614198746979717
 21
16.023910500487631
 31
0.0
  0
LINE
  5
7E
  8
1
 10
7.25
 20
57.623237273991649
 30
0.0
 11
7.2499999999999956
 21
50.248237273991649
 31
0.0
  0
LINE
  5
7F
  8
1
 10
7.875
 20
56.998237273991649
 30
0.0
 11
7.8750000000000009
 21
50.873237273991649
 31
0.0
  0
LINE
  5
80
  8
1
 10
19.875
 20
56.998237273991649
 30
0.0
 11
19.875
 21
50.873237273991649
 31
0.0
  0
LINE
  5
81
  8
1
 10
20.5
 20
57.623237273991649
 30
0.0
 11
20.5
 21
50.248237273991649
 31
0.0
  0
LINE
  5
82
  8
1
 10
7.25
 20
57.623237273991649
 30
0.0
 11
20.5
 21
57.623237273991649
 31
0.0
  0
LINE
  5
83
  8
1
 10
7.875
 20
37.623237273991649
 30
0.0
 11
19.875
 21
37.623237273991649
 31
0.0
  0
LINE
  5
84
  8
1
 10
7.25
 20
47.998237273991641
 30
0.0
 11
7.875
 21
47.998237273991641
 31
0.0
  0
LINE
  5
85
  8
1
 10
19.875
 20
47.998237273991641
 30
0.0
 11
20.5
 21
47.998237273991641
 31
0.0
  0
LINE
  5
86
  8
1
 10
20.5
 20
50.248237273991649
 30
0.0
 11
20.5
 21
47.998237273991641
 31
0.0
  0
LINE
  5
87
  8
1
 10
7.2499999999999956
 20
50.248237273991649
 30
0.0
 11
7.25
 21
47.998237273991641
 31
0.0
  0
LINE
  5
88
  8
1
 10
20.5
 20
50.248237273991649
 30
0.0
 11
7.2499999999999956
 21
50.248237273991649
 31
0.0
  0
LINE
  5
89
  8
1
 10
7.25
 20
56.998237273991649
 30
0.0
 11
20.5
 21
56.998237273991649
 31
0.0
  0
LINE
  5
8A
  8
1
 10
19.875
 20
50.248237273991649
 30
0.0
 11
19.875
 21
37.623237273991649
 31
0.0
  0
LINE
  5
8B
  8
1
 10
7.8750000000000009
 20
50.248237273991649
 30
0.0
 11
7.875
 21
37.623237273991649
 31
0.0
  0
LINE
  5
8C
  8
2RED
 10
19.625
 20
49.873237273991641
 30
0.0
 11
8.1250000000000018
 21
49.873237273991641
 31
0.0
  0
LINE
  5
8D
  8
2RED
 10
19.625
 20
50.248237273991649
 30
0.0
 11
19.625
 21
49.873237273991641
 31
0.0
  0
LINE
  5
8E
  8
2RED
 10
8.125
 20
50.248237273991649
 30
0.0
 11
8.1250000000000018
 21
49.873237273991641
 31
0.0
  0
LINE
  5
8F
  8
1BLACK
 10
8.8749999999999982
 20
53.781202596198398
 30
0.0
 11
18.875
 21
53.781202596198398
 31
0.0
  0
LINE
  5
90
  8
1BLACK
 10
8.8750000000000018
 20
49.873237273991641
 30
0.0
 11
8.875
 21
43.781202596198398
 31
0.0
  0
LINE
  5
91
  8
1BLACK
 10
18.875
 20
49.873237273991641
 30
0.0
 11
18.875
 21
43.781202596198398
 31
0.0
  0
LINE
  5
92
  8
1BLACK
 10
8.875
 20
43.781202596198398
 30
0.0
 11
18.875
 21
43.781202596198398
 31
0.0
  0
LINE
  5
93
  8
2RED
 10
14.685
 20
60.623237273991649
 30
0.0
 11
14.685
 21
59.123237273991649
 31
0.0
  0
LINE
  5
94
  8
2RED
 10
13.064999999999991
 20
60.623237273991649
 30
0.0
 11
13.064999999999991
 21
59.123237273991649
 31
0.0
  0
LINE
  5
95
  8
2RED
 10
13.064999999999991
 20
60.623237273991649
 30
0.0
 11
14.685
 21
60.623237273991649
 31
0.0
  0
LINE
  5
96
  8
2RED
 10
48.23919874697971
 20
14.83891050048763
 30
0.0
 11
46.73919874697971
 21
14.83891050048763
 31
0.0
  0
LINE
  5
97
  8
2RED
 10
48.23919874697971
 20
16.45891050048764
 30
0.0
 11
46.73919874697971
 21
16.45891050048764
 31
0.0
  0
LINE
  5
98
  8
2RED
 10
48.23919874697971
 20
16.45891050048764
 30
0.0
 11
48.23919874697971
 21
14.83891050048763
 31
0.0
  0
LINE
  5
99
  8
1BLACK
 10
37.48919874697971
 20
20.773910500487631
 30
0.0
 11
37.48919874697971
 21
31.773910500487631
 31
0.0
  0
LINE
  5
9A
  8
1BLACK
 10
36.86419874697971
 20
20.773910500487631
 30
0.0
 11
36.86419874697971
 21
31.773910500487631
 31
0.0
  0
LINE
  5
9B
  8
1BLACK
 10
20.5
 20
50.873237273991649
 30
0.0
 11
7.2499999999999956
 21
50.873237273991649
 31
0.0
  0
LINE
  5
9C
  8
1BLACK
 10
39.98919874697971
 20
23.64891050048762
 30
0.0
 11
39.98919874697971
 21
26.148910500487631
 31
0.0
  0
CIRCLE
  5
9D
  8
1BLACK
 10
39.56419874697972
 20
24.898910500487631
 30
0.0
 40
0.125
  0
LINE
  5
9E
  8
1BLACK
 10
39.764198746979723
 20
24.748910500487629
 30
0.0
 11
39.764198746979723
 21
25.048910500487629
 31
0.0
  0
ARC
  5
9F
  8
1BLACK
 10
39.56419874697972
 20
24.898910500487631
 30
0.0
 40
0.25
 50
216.86989764584271
 51
323.13010235415732
  0
ARC
  5
A0
  8
1BLACK
 10
39.56419874697972
 20
24.898910500487631
 30
0.0
 40
0.25
 50
36.869897645842727
 51
143.13010235415791
  0
LINE
  5
A1
  8
2RED
  6
CONTINUOUS
 62
     7
 10
8.875
 20
16.773910500487631
 30
0.0
 11
13.875
 21
16.773910500487631
 31
0.0
  0
LINE
  5
A2
  8
2RED
  6
CONTINUOUS
 62
     7
 10
8.875
 20
16.148910500487631
 30
0.0
 11
13.875
 21
16.148910500487631
 31
0.0
  0
LINE
  5
A3
  8
2RED
  6
CONTINUOUS
 62
     7
 10
10.08405804357904
 20
16.148910500487631
 30
0.0
 11
10.08405804357904
 21
14.648910500487631
 31
0.0
  0
LINE
  5
A4
  8
2RED
  6
CONTINUOUS
 62
     7
 10
10.70905804357904
 20
16.148910500487631
 30
0.0
 11
10.70905804357904
 21
14.648910500487631
 31
0.0
  0
LINE
  5
A5
  8
3BLUE
  6
CONTINUOUS
 10
9.7090580435790486
 20
16.023910500487631
 30
0.0
 11
9.7090580435790486
 21
14.523910500487631
 31
0.0
  0
LINE
  5
A6
  8
3BLUE
  6
CONTINUOUS
 10
9.0840580435790486
 20
16.023910500487631
 30
0.0
 11
9.0840580435790486
 21
14.523910500487631
 31
0.0
  0
LINE
  5
A7
  8
3BLUE
  6
CONTINUOUS
 10
7.8749999999999991
 20
14.523910500487631
 30
0.0
 11
19.875
 21
14.523910500487631
 31
0.0
  0
LINE
  5
A8
  8
3BLUE
  6
CONTINUOUS
 10
7.8749999999999991
 20
13.898910500487631
 30
0.0
 11
20.5
 21
13.898910500487631
 31
0.0
  0
CIRCLE
  5
A9
  8
1BLACK
  6
CONTINUOUS
 10
13.875
 20
15.898910500487631
 30
0.0
 40
0.125
  0
LINE
  5
AA
  8
1BLACK
  6
CONTINUOUS
 10
12.75
 20
16.148910500487631
 30
0.0
 11
12.75
 21
15.648910500487631
 31
0.0
  0
LINE
  5
AB
  8
1BLACK
  6
CONTINUOUS
 10
15.0
 20
16.148910500487631
 30
0.0
 11
15.0
 21
15.648910500487631
 31
0.0
  0
CIRCLE
  5
AC
  8
2RED
  6
CONTINUOUS
 10
13.875
 20
15.898910500487631
 30
0.0
 40
0.4375
  0
LINE
  5
AD
  8
2RED
  6
CONTINUOUS
 10
10.08405804357904
 20
16.023910500487631
 30
0.0
 11
9.7090580435790486
 21
16.023910500487631
 31
0.0
  0
LINE
  5
AE
  8
2RED
  6
CONTINUOUS
 10
10.08405804357904
 20
14.648910500487631
 30
0.0
 11
9.7090580435790486
 21
14.648910500487631
 31
0.0
  0
LINE
  5
AF
  8
1BLACK
  6
CONTINUOUS
 10
10.08405804357904
 20
14.648910500487631
 30
0.0
 11
10.70905804357904
 21
14.648910500487631
 31
0.0
  0
LINE
  5
B0
  8
2RED
  6
CONTINUOUS
 10
9.7090580435790486
 20
16.023910500487631
 30
0.0
 11
9.7090580435790486
 21
14.648910500487631
 31
0.0
  0
LINE
  5
B1
  8
3BLUE
  6
CONTINUOUS
 10
9.0840580435790486
 20
16.023910500487631
 30
0.0
 11
9.7090580435790486
 21
16.023910500487631
 31
0.0
  0
LINE
  5
B2
  8
1BLACK
  6
CONTINUOUS
 10
8.875
 20
16.773910500487631
 30
0.0
 11
8.875
 21
16.148910500487631
 31
0.0
  0
LINE
  5
B3
  8
3BLUE
  6
CONTINUOUS
 10
7.8749999999999991
 20
21.648910500487631
 30
0.0
 11
7.8749999999999991
 21
13.898910500487631
 31
0.0
  0
LINE
  5
B4
  8
3BLUE
  6
CONTINUOUS
 10
7.2499999999999991
 20
27.898910500487631
 30
0.0
 11
7.2499999999999991
 21
13.898910500487631
 31
0.0
  0
LINE
  5
B5
  8
3BLUE
  6
CONTINUOUS
 10
7.2499999999999991
 20
13.898910500487631
 30
0.0
 11
7.8749999999999991
 21
13.898910500487631
 31
0.0
  0
LINE
  5
B6
  8
3BLUE
  6
CONTINUOUS
 10
19.874999999999989
 20
21.648910500487631
 30
0.0
 11
19.875
 21
13.898910500487631
 31
0.0
  0
LINE
  5
B7
  8
3BLUE
  6
CONTINUOUS
 10
20.5
 20
27.898910500487631
 30
0.0
 11
20.5
 21
13.898910500487631
 31
0.0
  0
LINE
  5
B8
  8
2RED
  6
CONTINUOUS
 62
     7
 10
18.875
 20
16.773910500487631
 30
0.0
 11
13.875
 21
16.773910500487631
 31
0.0
  0
LINE
  5
B9
  8
2RED
  6
CONTINUOUS
 62
     7
 10
18.875
 20
16.148910500487631
 30
0.0
 11
13.875
 21
16.148910500487631
 31
0.0
  0
LINE
  5
BA
  8
2RED
  6
CONTINUOUS
 62
     7
 10
17.665941956420951
 20
16.148910500487631
 30
0.0
 11
17.665941956420951
 21
14.648910500487631
 31
0.0
  0
LINE
  5
BB
  8
2RED
  6
CONTINUOUS
 62
     7
 10
17.040941956420951
 20
16.148910500487631
 30
0.0
 11
17.040941956420951
 21
14.648910500487631
 31
0.0
  0
LINE
  5
BC
  8
3BLUE
  6
CONTINUOUS
 10
18.040941956420951
 20
16.023910500487631
 30
0.0
 11
18.040941956420951
 21
14.523910500487631
 31
0.0
  0
LINE
  5
BD
  8
3BLUE
  6
CONTINUOUS
 10
18.665941956420951
 20
16.023910500487631
 30
0.0
 11
18.665941956420951
 21
14.523910500487631
 31
0.0
  0
LINE
  5
BE
  8
2RED
  6
CONTINUOUS
 10
17.665941956420951
 20
16.023910500487631
 30
0.0
 11
18.040941956420951
 21
16.023910500487631
 31
0.0
  0
LINE
  5
BF
  8
2RED
  6
CONTINUOUS
 10
17.665941956420951
 20
14.648910500487631
 30
0.0
 11
18.040941956420951
 21
14.648910500487631
 31
0.0
  0
LINE
  5
C0
  8
1BLACK
  6
CONTINUOUS
 10
17.665941956420951
 20
14.648910500487631
 30
0.0
 11
17.040941956420951
 21
14.648910500487631
 31
0.0
  0
LINE
  5
C1
  8
2RED
  6
CONTINUOUS
 10
18.040941956420951
 20
16.023910500487631
 30
0.0
 11
18.040941956420951
 21
14.648910500487631
 31
0.0
  0
LINE
  5
C2
  8
3BLUE
  6
CONTINUOUS
 10
18.665941956420951
 20
16.023910500487631
 30
0.0
 11
18.040941956420951
 21
16.023910500487631
 31
0.0
  0
LINE
  5
C3
  8
1BLACK
  6
CONTINUOUS
 10
18.875
 20
16.773910500487631
 30
0.0
 11
18.875
 21
16.148910500487631
 31
0.0
  0
LINE
  5
C4
  8
3BLUE
 10
42.673371452447618
 20
53.662500070679052
 30
0.0
 11
42.242371452447628
 21
53.662500070679052
 31
0.0
  0
LINE
  5
C5
  8
3BLUE
 10
42.673371452447618
 20
54.162500070679052
 30
0.0
 11
42.242371452447628
 21
54.162500070679052
 31
0.0
  0
LINE
  5
C6
  8
1BLACK
 10
39.36419874697971
 20
26.148910500487631
 30
0.0
 11
39.98919874697971
 21
26.148910500487631
 31
0.0
  0
LINE
  5
C7
  8
1BLACK
 10
39.36419874697971
 20
23.64891050048762
 30
0.0
 11
39.98919874697971
 21
23.64891050048762
 31
0.0
  0
LINE
  5
C8
  8
3BLUE
 10
42.673371452447618
 20
52.162500070679052
 30
0.0
 11
42.673371452447618
 21
53.662500070679052
 31
0.0
  0
LINE
  5
C9
  8
3BLUE
  6
HIDDEN
 10
40.59458942595802
 20
54.162500070679059
 30
0.0
 11
38.59458942595802
 21
54.162500070679059
 31
0.0
  0
LINE
  5
CA
  8
3BLUE
  6
HIDDEN
 10
40.59458942595802
 20
53.662500070679059
 30
0.0
 11
38.59458942595802
 21
53.662500070679059
 31
0.0
  0
LINE
  5
CB
  8
3BLUE
 10
42.673371452447618
 20
54.162500070679052
 30
0.0
 11
42.673371452447618
 21
55.662500070679052
 31
0.0
  0
LINE
  5
CC
  8
2RED
 10
23.5
 20
50.953237273991647
 30
0.0
 11
22.0
 21
50.953237273991647
 31
0.0
  0
LINE
  5
CD
  8
2RED
 10
23.5
 20
52.573237273991658
 30
0.0
 11
22.0
 21
52.573237273991651
 31
0.0
  0
LINE
  5
CE
  8
2RED
 10
23.5
 20
52.573237273991658
 30
0.0
 11
23.5
 21
50.953237273991647
 31
0.0
  0
LINE
  5
CF
  8
1BLACK
 10
22.0
 20
52.573237273991651
 30
0.0
 11
22.0
 21
50.953237273991647
 31
0.0
  0
LINE
  5
D0
  8
2RED
 10
38.87669874697972
 20
24.086410500487631
 30
0.0
 11
40.251698746979713
 21
24.086410500487631
 31
0.0
  0
LINE
  5
D1
  8
2RED
 10
38.75169874697972
 20
24.211410500487631
 30
0.0
 11
38.75169874697972
 21
25.586410500487631
 31
0.0
  0
LINE
  5
D2
  8
2RED
 10
40.37669874697972
 20
24.211410500487631
 30
0.0
 11
40.37669874697972
 21
25.586410500487631
 31
0.0
  0
LINE
  5
D3
  8
2RED
 10
38.87669874697972
 20
25.711410500487631
 30
0.0
 11
40.251698746979713
 21
25.711410500487631
 31
0.0
  0
CIRCLE
  5
D4
  8
2RED
  6
CONTINUOUS
 10
39.56419874697972
 20
24.898910500487631
 30
0.0
 40
0.4375
  0
LINE
  5
D5
  8
2RED
 10
40.37669874697972
 20
25.586410500487631
 30
0.0
 11
40.251698746979713
 21
25.711410500487631
 31
0.0
  0
LINE
  5
D6
  8
2RED
 10
38.87669874697972
 20
25.711410500487631
 30
0.0
 11
38.75169874697972
 21
25.586410500487631
 31
0.0
  0
LINE
  5
D7
  8
2RED
 10
38.75169874697972
 20
24.211410500487631
 30
0.0
 11
38.87669874697972
 21
24.086410500487631
 31
0.0
  0
LINE
  5
D8
  8
2RED
 10
40.251698746979713
 20
24.086410500487631
 30
0.0
 11
40.37669874697972
 21
24.211410500487631
 31
0.0
  0
LINE
  5
D9
  8
1BLACK
 10
18.323955208339122
 20
27.898910500487631
 30
0.0
 11
20.5
 21
27.898910500487631
 31
0.0
  0
LINE
  5
DA
  8
1BLACK
 10
7.2499999999999991
 20
27.898910500487631
 30
0.0
 11
13.08395520833907
 21
27.898910500487631
 31
0.0
  0
LINE
  5
DB
  8
1BLACK
 10
18.323955208339122
 20
21.648910500487631
 30
0.0
 11
20.5
 21
21.648910500487631
 31
0.0
  0
LINE
  5
DC
  8
1BLACK
 10
7.2499999999999991
 20
21.648910500487631
 30
0.0
 11
13.083955208339059
 21
21.648910500487631
 31
0.0
  0
LINE
  5
DD
  8
2RED
 10
18.040941956420951
 20
43.781202596198398
 30
0.0
 11
18.040941956420951
 21
37.623237273991649
 31
0.0
  0
LINE
  5
DE
  8
2RED
 10
17.665941956420951
 20
43.781202596198398
 30
0.0
 11
17.665941956420951
 21
37.623237273991649
 31
0.0
  0
LINE
  5
DF
  8
2RED
 10
9.7090580435790521
 20
43.781202596198398
 30
0.0
 11
9.7090580435790521
 21
37.623237273991649
 31
0.0
  0
LINE
  5
E0
  8
3BLUE
 10
9.0840580435790521
 20
43.781202596198398
 30
0.0
 11
9.0840580435790521
 21
37.623237273991649
 31
0.0
  0
LINE
  5
E1
  8
3BLUE
 10
18.665941956420951
 20
43.781202596198398
 30
0.0
 11
18.665941956420951
 21
37.623237273991649
 31
0.0
  0
LINE
  5
E2
  8
2RED
 10
10.08405804357905
 20
43.781202596198398
 30
0.0
 11
10.08405804357905
 21
37.623237273991649
 31
0.0
  0
LINE
  5
E3
  8
3BLUE
 10
9.0840580435790468
 20
56.998237273991649
 30
0.0
 11
9.0840580435790468
 21
53.781202596198398
 31
0.0
  0
LINE
  5
E4
  8
3BLUE
 10
18.665941956420951
 20
56.998237273991649
 30
0.0
 11
18.665941956420951
 21
53.781202596198398
 31
0.0
  0
LINE
  5
E5
  8
3BLUE
 10
18.040941956420951
 20
56.998237273991649
 30
0.0
 11
18.040941956420951
 21
53.781202596198398
 31
0.0
  0
LINE
  5
E6
  8
3BLUE
 10
9.7090580435790521
 20
56.998237273991649
 30
0.0
 11
9.7090580435790521
 21
53.781202596198398
 31
0.0
  0
LINE
  5
E7
  8
1BLACK
 10
8.8749999999999982
 20
53.781202596198398
 30
0.0
 11
8.8749999999999982
 21
50.873237273991649
 31
0.0
  0
LINE
  5
E8
  8
1BLACK
 10
18.875
 20
53.781202596198398
 30
0.0
 11
18.875
 21
50.873237273991649
 31
0.0
  0
LINE
  5
E9
  8
1BLACK
 10
18.323955208339122
 20
20.773910500487631
 30
0.0
 11
18.198955208339122
 21
20.773910500487631
 31
0.0
  0
LINE
  5
EA
  8
1BLACK
 10
36.86419874697971
 20
20.773910500487631
 30
0.0
 11
37.48919874697971
 21
20.773910500487631
 31
0.0
  0
LINE
  5
EB
  8
2RED
 10
36.489198746979717
 20
37.29188031456642
 30
0.0
 11
36.11419874697971
 21
37.29188031456642
 31
0.0
  0
LINE
  5
EC
  8
1BLACK
 10
37.48919874697971
 20
37.205225884436643
 30
0.0
 11
36.86419874697971
 21
37.205225884436643
 31
0.0
  0
LINE
  5
ED
  8
1BLACK
 10
37.48919874697971
 20
42.445225884436638
 30
0.0
 11
36.86419874697971
 21
42.445225884436638
 31
0.0
  0
LINE
  5
EE
  8
1BLACK
 10
36.114198746979717
 20
42.445225884436638
 30
0.0
 11
35.48919874697971
 21
42.445225884436638
 31
0.0
  0
LINE
  5
EF
  8
1BLACK
 10
36.114198746979717
 20
37.205225884436643
 30
0.0
 11
35.493316539451058
 21
37.205225884436643
 31
0.0
  0
LINE
  5
F0
  8
1BLACK
  6
CONTINUOUS
 10
13.08395520833912
 20
47.598237273991643
 30
0.0
 11
18.323955208339122
 21
47.598237273991643
 31
0.0
  0
LINE
  5
F1
  8
2RED
  6
CONTINUOUS
 10
16.857300778209339
 20
48.22323727399165
 30
0.0
 11
18.23230077820935
 21
48.22323727399165
 31
0.0
  0
LINE
  5
F2
  8
1BLACK
  6
CONTINUOUS
 10
13.08395520833912
 20
49.873237273991641
 30
0.0
 11
18.323955208339122
 21
49.873237273991641
 31
0.0
  0
LINE
  5
F3
  8
1BLACK
  6
CONTINUOUS
 10
13.08395520833912
 20
49.248237273991641
 30
0.0
 11
18.323955208339122
 21
49.248237273991641
 31
0.0
  0
CIRCLE
  5
F4
  8
2RED
 10
15.703955208339121
 20
48.439855066462997
 30
0.0
 40
0.1275925543691066
  0
ARC
  5
F5
  8
2RED
 10
15.703955208339121
 20
48.439855066462997
 30
0.0
 40
0.25
 50
126.86989764584381
 51
233.13010235415609
  0
ARC
  5
F6
  8
2RED
 10
15.703955208339121
 20
48.448237273991651
 30
0.0
 40
0.25
 50
306.86989764584382
 51
53.130102354156143
  0
LINE
  5
F7
  8
3BLUE
 10
16.704088199304159
 20
48.873237273991649
 30
0.0
 11
14.703955208339121
 21
48.873237273991663
 31
0.0
  0
LINE
  5
F8
  8
3BLUE
 10
15.453955208339121
 20
48.248237273991649
 30
0.0
 11
15.453955208339121
 21
48.64823727399164
 31
0.0
  0
LINE
  5
F9
  8
3BLUE
 10
15.953955208339121
 20
48.248237273991649
 30
0.0
 11
15.953955208339121
 21
48.64823727399164
 31
0.0
  0
LINE
  5
FA
  8
3BLUE
 10
14.703955208339121
 20
48.22323727399165
 30
0.0
 11
15.453955208339121
 21
48.22323727399165
 31
0.0
  0
LINE
  5
FB
  8
3BLUE
  6
HIDDEN
 10
14.953955208339121
 20
48.248237273991649
 30
0.0
 11
14.953955208339121
 21
48.873237273991649
 31
0.0
  0
LINE
  5
FC
  8
3BLUE
  6
HIDDEN
 10
15.203955208339121
 20
48.248237273991649
 30
0.0
 11
15.203955208339121
 21
48.873237273991649
 31
0.0
  0
LINE
  5
FD
  8
3BLUE
  6
HIDDEN
 10
16.203955208339121
 20
48.248237273991649
 30
0.0
 11
16.203955208339121
 21
48.873237273991649
 31
0.0
  0
LINE
  5
FE
  8
3BLUE
  6
HIDDEN
 10
16.453955208339121
 20
48.248237273991649
 30
0.0
 11
16.453955208339121
 21
48.873237273991649
 31
0.0
  0
LINE
  5
FF
  8
3BLUE
 10
15.953955208339121
 20
48.22323727399165
 30
0.0
 11
16.704088199304159
 21
48.22323727399165
 31
0.0
  0
LINE
  5
100
  8
3BLUE
 10
15.953955208339121
 20
48.64823727399164
 30
0.0
 11
15.453955208339121
 21
48.64823727399164
 31
0.0
  0
LINE
  5
101
  8
2RED
 10
15.55395520833912
 20
48.22323727399165
 30
0.0
 11
15.853955208339119
 21
48.22323727399165
 31
0.0
  0
LINE
  5
102
  8
3BLUE
 10
16.704088199304159
 20
48.248237273991649
 30
0.0
 11
16.704088199304159
 21
48.873237273991649
 31
0.0
  0
LINE
  5
103
  8
1BLACK
 10
14.703955208339121
 20
48.248237273991663
 30
0.0
 11
14.703955208339121
 21
48.873237273991663
 31
0.0
  0
LINE
  5
104
  8
3BLUE
 10
16.79730077820934
 20
48.623237273991641
 30
0.0
 11
16.79730077820934
 21
49.248237273991641
 31
0.0
  0
LINE
  5
105
  8
3BLUE
 10
16.79730077820934
 20
48.623237273991641
 30
0.0
 11
18.29730077820934
 21
48.623237273991641
 31
0.0
  0
LINE
  5
106
  8
3BLUE
 10
18.29730077820934
 20
48.623237273991641
 30
0.0
 11
18.29730077820934
 21
49.248237273991641
 31
0.0
  0
LINE
  5
107
  8
2RED
 10
18.237300778209342
 20
48.623237273991641
 30
0.0
 11
18.237300778209342
 21
48.22323727399165
 31
0.0
  0
LINE
  5
108
  8
2RED
 10
16.857300778209339
 20
48.623237273991641
 30
0.0
 11
16.857300778209339
 21
48.22323727399165
 31
0.0
  0
LINE
  5
109
  8
2RED
  6
CONTINUOUS
 10
14.550609638468901
 20
48.22323727399165
 30
0.0
 11
13.17560963846889
 21
48.22323727399165
 31
0.0
  0
LINE
  5
10A
  8
3BLUE
 10
14.610609638468899
 20
48.623237273991641
 30
0.0
 11
14.610609638468899
 21
49.248237273991641
 31
0.0
  0
LINE
  5
10B
  8
3BLUE
 10
14.610609638468899
 20
48.623237273991641
 30
0.0
 11
13.110609638468899
 21
48.623237273991641
 31
0.0
  0
LINE
  5
10C
  8
3BLUE
 10
13.110609638468899
 20
48.623237273991641
 30
0.0
 11
13.110609638468899
 21
49.248237273991641
 31
0.0
  0
LINE
  5
10D
  8
2RED
 10
13.1706096384689
 20
48.623237273991641
 30
0.0
 11
13.1706096384689
 21
48.22323727399165
 31
0.0
  0
LINE
  5
10E
  8
2RED
 10
14.550609638468901
 20
48.623237273991641
 30
0.0
 11
14.550609638468901
 21
48.22323727399165
 31
0.0
  0
LINE
  5
10F
  8
1BLACK
 10
18.323955208339122
 20
49.873237273991641
 30
0.0
 11
18.323955208339122
 21
49.248237273991641
 31
0.0
  0
LINE
  5
110
  8
1BLACK
 10
13.08395520833912
 20
49.873237273991641
 30
0.0
 11
13.08395520833912
 21
49.248237273991641
 31
0.0
  0
LINE
  5
111
  8
1BLACK
 10
13.08395520833912
 20
48.22323727399165
 30
0.0
 11
13.08395520833912
 21
47.598237273991643
 31
0.0
  0
LINE
  5
112
  8
1BLACK
 10
18.323955208339122
 20
48.22323727399165
 30
0.0
 11
18.323955208339122
 21
47.598237273991643
 31
0.0
  0
LINE
  5
113
  8
1BLACK
 10
13.08395520833912
 20
48.22323727399165
 30
0.0
 11
18.323955208339122
 21
48.22323727399165
 31
0.0
  0
LINE
  5
114
  8
1BLACK
 10
13.08395520833907
 20
31.773910500487631
 30
0.0
 11
13.08395520833907
 21
20.773910500487631
 31
0.0
  0
LINE
  5
115
  8
1BLACK
 10
18.323955208339122
 20
31.773910500487631
 30
0.0
 11
18.323955208339122
 21
20.773910500487631
 31
0.0
  0
LINE
  5
116
  8
3BLUE
 10
39.239198746979717
 20
38.325225884436641
 30
0.0
 11
39.239198746979717
 21
41.325225884436641
 31
0.0
  0
LINE
  5
117
  8
2RED
 10
37.86419874697971
 20
27.773910500487631
 30
0.0
 11
37.86419874697971
 21
26.398910500487631
 31
0.0
  0
LINE
  5
118
  8
3BLUE
 10
38.73919874697971
 20
20.773910500487631
 30
0.0
 11
38.73919874697971
 21
31.773910500487631
 31
0.0
  0
LINE
  5
119
  8
3BLUE
 10
37.48919874697971
 20
21.398910500487631
 30
0.0
 11
38.73919874697971
 21
21.398910500487631
 31
0.0
  0
LINE
  5
11A
  8
3BLUE
 10
39.36419874697971
 20
20.773910500487631
 30
0.0
 11
39.36419874697971
 21
32.398910500487631
 31
0.0
  0
LINE
  5
11B
  8
3BLUE
 10
37.48919874697971
 20
20.773910500487631
 30
0.0
 11
39.36419874697971
 21
20.773910500487631
 31
0.0
  0
LINE
  5
11C
  8
1BLACK
 10
35.48919874697971
 20
26.773910500487631
 30
0.0
 11
35.48919874697971
 21
18.273910500487631
 31
0.0
  0
LINE
  5
11D
  8
1BLACK
  6
CONTINUOUS
 10
34.239198746979717
 20
20.773910500487631
 30
0.0
 11
34.23919874697971
 21
24.711410500487631
 31
0.0
  0
INSERT
  5
123
  8
1BLACK
  6
CONTINUOUS
  2
LONGARROW
 10
34.239198746979717
 20
20.773910500487631
 30
0.0
 41
0.75
 42
0.75
 50
90.000000000000057
  0
CIRCLE
  5
124
  8
1BLACK
 10
34.23919874697971
 20
24.711410500487631
 30
0.0
 40
1.0
  0
LINE
  5
125
  8
2RED
 10
36.11419874697971
 20
29.148910500487631
 30
0.0
 11
36.489198746979717
 21
29.148910500487631
 31
0.0
  0
LINE
  5
126
  8
2RED
 10
36.11419874697971
 20
20.898910500487631
 30
0.0
 11
36.489198746979717
 21
20.898910500487631
 31
0.0
  0
LINE
  5
127
  8
3BLUE
 10
36.489198746979717
 20
29.148910500487631
 30
0.0
 11
36.86419874697971
 21
29.148910500487631
 31
0.0
  0
LINE
  5
128
  8
3BLUE
 10
36.489198746979717
 20
20.898910500487631
 30
0.0
 11
36.86419874697971
 21
20.898910500487631
 31
0.0
  0
LINE
  5
129
  8
3BLUE
 10
36.489198746979717
 20
29.148910500487631
 30
0.0
 11
36.489198746979717
 21
20.898910500487631
 31
0.0
  0
LINE
  5
12A
  8
1BLACK
 10
36.11419874697971
 20
26.773910500487631
 30
0.0
 11
36.11419874697971
 21
18.273910500487631
 31
0.0
  0
LINE
  5
12B
  8
1BLACK
 10
39.36419874697971
 20
31.773910500487631
 30
0.0
 11
34.98919874697971
 21
31.773910500487631
 31
0.0
  0
LINE
  5
12C
  8
1BLACK
 10
39.36419874697971
 20
32.398910500487631
 30
0.0
 11
34.98919874697971
 21
32.398910500487631
 31
0.0
  0
LINE
  5
12D
  8
1BLACK
 10
36.11419874697971
 20
18.273910500487631
 30
0.0
 11
35.48919874697971
 21
18.273910500487631
 31
0.0
  0
LINE
  5
12E
  8
1BLACK
 10
36.11419874697971
 20
26.773910500487631
 30
0.0
 11
35.48919874697971
 21
26.773910500487631
 31
0.0
  0
LINE
  5
12F
  8
2RED
 10
36.11419874697971
 20
26.773910500487631
 30
0.0
 11
36.11419874697971
 21
29.148910500487631
 31
0.0
  0
LINE
  5
130
  8
1BLACK
  6
DIVIDE
 10
36.11419874697971
 20
30.773910500487631
 30
0.0
 11
35.48919874697971
 21
30.773910500487631
 31
0.0
  0
LINE
  5
131
  8
1BLACK
  6
DIVIDE
 10
35.48919874697971
 20
30.773910500487631
 30
0.0
 11
35.48919874697971
 21
26.773910500487631
 31
0.0
  0
LINE
  5
132
  8
1BLACK
  6
DIVIDE
 10
36.11419874697971
 20
30.773910500487631
 30
0.0
 11
36.11419874697971
 21
26.773910500487631
 31
0.0
  0
LINE
  5
133
  8
1BLACK
 10
37.48919874697971
 20
28.023910500487631
 30
0.0
 11
38.73919874697971
 21
28.023910500487631
 31
0.0
  0
LINE
  5
134
  8
1BLACK
 10
37.48919874697971
 20
28.648910500487631
 30
0.0
 11
38.73919874697971
 21
28.648910500487631
 31
0.0
  0
LINE
  5
135
  8
1BLACK
 10
35.493316539451058
 20
37.205225884436643
 30
0.0
 11
35.48919874697971
 21
37.205225884436643
 31
0.0
  0
LINE
  5
136
  8
3BLUE
  6
HIDDEN
 10
38.614198746979717
 20
38.325225884436641
 30
0.0
 11
38.614198746979717
 21
41.325225884436641
 31
0.0
  0
LINE
  5
137
  8
3BLUE
 10
35.118316539451058
 20
41.325225884436641
 30
0.0
 11
39.239198746979717
 21
41.325225884436641
 31
0.0
  0
LINE
  5
138
  8
3BLUE
 10
35.118316539451058
 20
38.325225884436641
 30
0.0
 11
39.239198746979717
 21
38.325225884436641
 31
0.0
  0
LINE
  5
139
  8
1BLACK
 10
41.489198746979717
 20
27.898910500487631
 30
0.0
 11
44.614198746979717
 21
17.523910500487631
 31
0.0
  0
LINE
  5
13A
  8
1BLACK
 10
44.614198746979717
 20
13.898910500487631
 30
0.0
 11
44.614198746979717
 21
17.523910500487631
 31
0.0
  0
LINE
  5
13B
  8
1BLACK
 10
14.203955208339091
 20
32.398910500487631
 30
0.0
 11
17.203955208339089
 21
32.398910500487631
 31
0.0
  0
LINE
  5
13C
  8
1BLACK
 10
13.08395520833907
 20
31.773910500487631
 30
0.0
 11
18.323955208339122
 21
31.773910500487631
 31
0.0
  0
LINE
  5
13D
  8
1BLACK
 10
17.203955208339089
 20
32.398910500487631
 30
0.0
 11
17.203955208339089
 21
31.773910500487631
 31
0.0
  0
LINE
  5
13E
  8
1BLACK
 10
14.203955208339091
 20
32.398910500487631
 30
0.0
 11
14.203955208339091
 21
31.773910500487631
 31
0.0
  0
LINE
  5
13F
  8
2RED
 10
37.055816539451072
 20
35.398910500487631
 30
0.0
 11
37.055816539451072
 21
33.898910500487631
 31
0.0
  0
LINE
  5
140
  8
2RED
 10
35.555816539451058
 20
35.398910500487631
 30
0.0
 11
35.555816539451058
 21
33.898910500487631
 31
0.0
  0
LINE
  5
141
  8
2RED
 10
35.555816539451058
 20
35.398910500487631
 30
0.0
 11
37.055816539451072
 21
35.398910500487631
 31
0.0
  0
LINE
  5
142
  8
3BLUE
 10
18.198955208339122
 20
26.773910500487631
 30
0.0
 11
18.198955208339122
 21
18.273910500487631
 31
0.0
  0
LINE
  5
143
  8
3BLUE
 10
13.20895520833907
 20
26.773910500487631
 30
0.0
 11
13.20895520833907
 21
18.273910500487631
 31
0.0
  0
LINE
  5
144
  8
3BLUE
 10
13.20895520833907
 20
18.273910500487631
 30
0.0
 11
18.198955208339122
 21
18.273910500487631
 31
0.0
  0
LINE
  5
145
  8
3BLUE
 10
13.20895520833907
 20
26.773910500487631
 30
0.0
 11
18.198955208339122
 21
26.773910500487631
 31
0.0
  0
LINE
  5
146
  8
1BLACK
 10
13.20895520833907
 20
20.773910500487631
 30
0.0
 11
13.08395520833907
 21
20.773910500487631
 31
0.0
  0
LINE
  5
147
  8
2RED
 10
16.857300778209339
 20
29.273910500487631
 30
0.0
 11
16.857300778209339
 21
26.773910500487631
 31
0.0
  0
LINE
  5
148
  8
2RED
 10
14.550609638468901
 20
29.273910500487631
 30
0.0
 11
14.550609638468901
 21
26.773910500487631
 31
0.0
  0
LINE
  5
149
  8
2RED
 10
18.177300778209339
 20
29.273910500487631
 30
0.0
 11
18.177300778209339
 21
26.773910500487631
 31
0.0
  0
LINE
  5
14A
  8
2RED
 10
13.230609638468909
 20
29.273910500487631
 30
0.0
 11
13.230609638468909
 21
26.773910500487631
 31
0.0
  0
LINE
  5
14B
  8
2RED
 10
14.550609638468901
 20
29.273910500487631
 30
0.0
 11
13.230609638468909
 21
29.273910500487631
 31
0.0
  0
LINE
  5
14C
  8
2RED
 10
18.177300778209339
 20
29.273910500487631
 30
0.0
 11
16.857300778209339
 21
29.273910500487631
 31
0.0
  0
LINE
  5
14D
  8
1BLACK
 10
20.5
 20
53.873237273991649
 30
0.0
 11
19.875
 21
53.873237273991649
 31
0.0
  0
LINE
  5
14E
  8
1BLACK
 10
7.875
 20
53.873237273991649
 30
0.0
 11
7.2499999999999956
 21
53.873237273991649
 31
0.0
  0
LINE
  5
14F
  8
1BLACK
  6
CONTINUOUS
 10
37.48919874697971
 20
38.325225884436641
 30
0.0
 11
37.48919874697971
 21
37.205225884436643
 31
0.0
  0
LINE
  5
150
  8
1BLACK
  6
CONTINUOUS
 10
37.48919874697971
 20
42.445225884436638
 30
0.0
 11
37.48919874697971
 21
41.325225884436641
 31
0.0
  0
LINE
  5
151
  8
1BLACK
  6
CONTINUOUS
 10
36.86419874697971
 20
38.325225884436641
 30
0.0
 11
36.86419874697971
 21
37.205225884436643
 31
0.0
  0
LINE
  5
152
  8
1BLACK
  6
CONTINUOUS
 10
36.86419874697971
 20
42.445225884436638
 30
0.0
 11
36.86419874697971
 21
41.325225884436641
 31
0.0
  0
LINE
  5
153
  8
3BLUE
 10
36.489198746979717
 20
41.325225884436641
 30
0.0
 11
36.489198746979717
 21
42.418571454306857
 31
0.0
  0
LINE
  5
154
  8
1BLACK
 10
36.114198746979717
 20
38.325225884436641
 30
0.0
 11
36.114198746979717
 21
37.205225884436643
 31
0.0
  0
LINE
  5
155
  8
1BLACK
 10
36.114198746979717
 20
42.445225884436638
 30
0.0
 11
36.114198746979717
 21
41.325225884436641
 31
0.0
  0
LINE
  5
156
  8
1BLACK
  6
CONTINUOUS
 10
35.48919874697971
 20
38.325225884436641
 30
0.0
 11
35.48919874697971
 21
37.205225884436643
 31
0.0
  0
LINE
  5
157
  8
1BLACK
  6
CONTINUOUS
 10
35.48919874697971
 20
42.445225884436638
 30
0.0
 11
35.48919874697971
 21
41.325225884436641
 31
0.0
  0
LINE
  5
158
  8
3BLUE
 10
36.489198746979717
 20
38.325225884436641
 30
0.0
 11
36.489198746979717
 21
37.231880314566418
 31
0.0
  0
LINE
  5
159
  8
1BLACK
 10
37.961912734469358
 20
46.605886570310787
 30
0.0
 11
37.961912734469358
 21
48.980886570310801
 31
0.0
  0
LINE
  5
15A
  8
1BLACK
 10
37.336912734469358
 20
46.605886570310787
 30
0.0
 11
37.336912734469358
 21
47.293386570310801
 31
0.0
  0
LINE
  5
15B
  8
3BLUE
 10
36.711912734469358
 20
45.605886570310801
 30
0.0
 11
36.711912734469358
 21
46.605886570310787
 31
0.0
  0
LINE
  5
15C
  8
3BLUE
 10
38.211912734469358
 20
46.605886570310787
 30
0.0
 11
38.211912734469358
 21
48.980886570310801
 31
0.0
  0
LINE
  5
15D
  8
2RED
 10
41.461912734469372
 20
48.605886570310801
 30
0.0
 11
42.836912734469358
 21
48.605886570310801
 31
0.0
  0
LINE
  5
15E
  8
2RED
 10
41.461912734469372
 20
46.980886570310801
 30
0.0
 11
42.836912734469358
 21
46.980886570310801
 31
0.0
  0
LINE
  5
15F
  8
2RED
 10
42.961912734469358
 20
48.480886570310801
 30
0.0
 11
42.836912734469358
 21
48.605886570310801
 31
0.0
  0
LINE
  5
160
  8
2RED
 10
41.461912734469372
 20
48.605886570310801
 30
0.0
 11
41.336912734469358
 21
48.480886570310801
 31
0.0
  0
LINE
  5
161
  8
2RED
 10
41.336912734469358
 20
47.105886570310801
 30
0.0
 11
41.461912734469372
 21
46.980886570310801
 31
0.0
  0
LINE
  5
162
  8
2RED
 10
42.836912734469358
 20
46.980886570310801
 30
0.0
 11
42.961912734469358
 21
47.105886570310801
 31
0.0
  0
LINE
  5
163
  8
2RED
 10
41.336912734469358
 20
47.105886570310801
 30
0.0
 11
41.336912734469358
 21
48.480886570310801
 31
0.0
  0
LINE
  5
164
  8
2RED
 10
42.961912734469358
 20
47.105886570310801
 30
0.0
 11
42.961912734469358
 21
48.480886570310801
 31
0.0
  0
LINE
  5
165
  8
1BLACK
 10
40.961912734469358
 20
48.980886570310801
 30
0.0
 11
43.336912734469372
 21
48.980886570310801
 31
0.0
  0
LINE
  5
166
  8
1BLACK
 10
40.961912734469358
 20
46.605886570310787
 30
0.0
 11
40.961912734469358
 21
48.980886570310801
 31
0.0
  0
LINE
  5
167
  8
1BLACK
 10
40.961912734469358
 20
46.605886570310787
 30
0.0
 11
43.336912734469372
 21
46.605886570310787
 31
0.0
  0
LINE
  5
168
  8
1BLACK
 10
43.336912734469372
 20
46.605886570310787
 30
0.0
 11
43.336912734469372
 21
48.980886570310801
 31
0.0
  0
CIRCLE
  5
169
  8
1BLACK
 10
41.211912734469358
 20
48.730886570310801
 30
0.0
 40
0.094
  0
CIRCLE
  5
16A
  8
1BLACK
 10
43.086912734469358
 20
48.730886570310801
 30
0.0
 40
0.094
  0
CIRCLE
  5
16B
  8
1BLACK
 10
43.086912734469358
 20
46.855886570310801
 30
0.0
 40
0.094
  0
CIRCLE
  5
16C
  8
1BLACK
 10
41.211912734469358
 20
46.855886570310801
 30
0.0
 40
0.094
  0
LINE
  5
16D
  8
1BLACK
 10
32.711912734469358
 20
46.605886570310787
 30
0.0
 11
32.711912734469358
 21
48.980886570310801
 31
0.0
  0
LINE
  5
16E
  8
1BLACK
 10
35.086912734469358
 20
46.605886570310787
 30
0.0
 11
35.086912734469358
 21
47.168386570310801
 31
0.0
  0
LINE
  5
16F
  8
1BLACK
 10
32.711912734469358
 20
48.980886570310801
 30
0.0
 11
35.086912734469358
 21
48.980886570310801
 31
0.0
  0
LINE
  5
170
  8
1BLACK
 10
35.086912734469358
 20
46.605886570310787
 30
0.0
 11
32.711912734469358
 21
46.605886570310787
 31
0.0
  0
LINE
  5
171
  8
1BLACK
 10
35.086912734469358
 20
48.418386570310801
 30
0.0
 11
35.086912734469358
 21
48.980886570310801
 31
0.0
  0
CIRCLE
  5
172
  8
1BLACK
 10
32.961912734469358
 20
48.730886570310801
 30
0.0
 40
0.094
  0
CIRCLE
  5
173
  8
1BLACK
 10
34.836912734469358
 20
48.730886570310801
 30
0.0
 40
0.094
  0
CIRCLE
  5
174
  8
1BLACK
 10
34.836912734469358
 20
46.855886570310801
 30
0.0
 40
0.094
  0
CIRCLE
  5
175
  8
1BLACK
 10
32.961912734469358
 20
46.855886570310801
 30
0.0
 40
0.094
  0
LINE
  5
176
  8
1BLACK
 10
36.711912734469358
 20
48.980886570310801
 30
0.0
 11
37.961912734469358
 21
48.980886570310801
 31
0.0
  0
LINE
  5
177
  8
1BLACK
 10
36.711912734469358
 20
46.605886570310787
 30
0.0
 11
37.961912734469358
 21
46.605886570310787
 31
0.0
  0
LINE
  5
178
  8
3BLUE
 10
36.711912734469358
 20
48.980886570310801
 30
0.0
 11
36.711912734469358
 21
49.980886570310801
 31
0.0
  0
LINE
  5
179
  8
1BLACK
 10
36.711912734469358
 20
46.605886570310787
 30
0.0
 11
36.711912734469358
 21
48.980886570310801
 31
0.0
  0
LINE
  5
17A
  8
1BLACK
 10
37.336912734469358
 20
48.293386570310801
 30
0.0
 11
37.336912734469358
 21
48.980886570310801
 31
0.0
  0
LINE
  5
17B
  8
1BLACK
 10
37.336912734469358
 20
47.293386570310801
 30
0.0
 11
37.336912734469358
 21
48.293386570310801
 31
0.0
  0
LINE
  5
17C
  8
1BLACK
 10
36.711912734469358
 20
48.293386570310801
 30
0.0
 11
37.961912734469358
 21
48.293386570310801
 31
0.0
  0
LINE
  5
17D
  8
1BLACK
 10
36.711912734469358
 20
47.293386570310801
 30
0.0
 11
37.961912734469358
 21
47.293386570310801
 31
0.0
  0
LINE
  5
17E
  8
3BLUE
 10
37.961912734469358
 20
48.449972561597889
 30
0.0
 11
38.211912734469358
 21
48.449972561597889
 31
0.0
  0
LINE
  5
17F
  8
3BLUE
 10
37.961912734469358
 20
48.329972561597891
 30
0.0
 11
38.211912734469358
 21
48.329972561597891
 31
0.0
  0
LINE
  5
180
  8
3BLUE
 10
37.961912734469358
 20
47.256800579023718
 30
0.0
 11
38.211912734469358
 21
47.256800579023718
 31
0.0
  0
LINE
  5
181
  8
3BLUE
 10
37.961912734469358
 20
47.136800579023713
 30
0.0
 11
38.211912734469358
 21
47.136800579023713
 31
0.0
  0
LINE
  5
182
  8
3BLUE
 10
36.086912734469358
 20
45.605886570310801
 30
0.0
 11
36.086912734469358
 21
49.980886570310801
 31
0.0
  0
LINE
  5
183
  8
3BLUE
 10
36.086912734469358
 20
48.230886570310801
 30
0.0
 11
36.336912734469358
 21
48.230886570310801
 31
0.0
  0
LINE
  5
184
  8
3BLUE
 10
36.086912734469358
 20
47.355886570310801
 30
0.0
 11
36.336912734469358
 21
47.355886570310801
 31
0.0
  0
LINE
  5
185
  8
3BLUE
 10
36.336912734469358
 20
47.355886570310801
 30
0.0
 11
36.336912734469358
 21
48.230886570310801
 31
0.0
  0
LINE
  5
186
  8
3BLUE
 10
36.336912734469358
 20
47.949636570310801
 30
0.0
 11
36.711912734469358
 21
47.949636570310801
 31
0.0
  0
LINE
  5
187
  8
3BLUE
 10
36.336912734469358
 20
47.637136570310801
 30
0.0
 11
36.711912734469358
 21
47.637136570310801
 31
0.0
  0
LINE
  5
188
  8
1BLACK
 10
37.961912734469358
 20
48.509972561597891
 30
0.0
 11
37.841912734469361
 21
48.509972561597891
 31
0.0
  0
LINE
  5
189
  8
1BLACK
 10
37.961912734469358
 20
47.076800579023711
 30
0.0
 11
37.841912734469361
 21
47.076800579023711
 31
0.0
  0
LINE
  5
18A
  8
1BLACK
 10
37.841912734469361
 20
48.509972561597891
 30
0.0
 11
37.841912734469361
 21
48.293386570310801
 31
0.0
  0
LINE
  5
18B
  8
1BLACK
 10
37.841912734469361
 20
47.293386570310801
 30
0.0
 11
37.841912734469361
 21
47.076800579023711
 31
0.0
  0
LINE
  5
18C
  8
2RED
 10
38.211912734469358
 20
48.543386570310801
 30
0.0
 11
39.711912734469358
 21
48.543386570310801
 31
0.0
  0
LINE
  5
18D
  8
2RED
 10
38.211912734469358
 20
47.043386570310801
 30
0.0
 11
39.711912734469358
 21
47.043386570310801
 31
0.0
  0
LINE
  5
18E
  8
2RED
 10
39.711912734469358
 20
47.043386570310801
 30
0.0
 11
39.711912734469358
 21
48.543386570310801
 31
0.0
  0
LINE
  5
18F
  8
3BLUE
 10
15.06299999999999
 20
58.873237273991649
 30
0.0
 11
15.06299999999999
 21
57.623237273991649
 31
0.0
  0
LINE
  5
190
  8
3BLUE
 10
12.686999999999991
 20
58.873237273991649
 30
0.0
 11
12.686999999999991
 21
57.623237273991649
 31
0.0
  0
LINE
  5
191
  8
1BLACK
 10
12.686999999999991
 20
59.123237273991649
 30
0.0
 11
15.06299999999999
 21
59.123237273991649
 31
0.0
  0
LINE
  5
192
  8
1BLACK
 10
12.686999999999991
 20
58.873237273991649
 30
0.0
 11
15.06299999999999
 21
58.873237273991649
 31
0.0
  0
LINE
  5
193
  8
3BLUE
 10
12.686999999999991
 20
58.248237273991649
 30
0.0
 11
15.06299999999999
 21
58.248237273991649
 31
0.0
  0
LINE
  5
194
  8
3BLUE
 10
37.553816539451063
 20
33.648910500487631
 30
0.0
 11
37.553816539451063
 21
32.398910500487631
 31
0.0
  0
LINE
  5
195
  8
3BLUE
 10
35.177816539451058
 20
33.648910500487631
 30
0.0
 11
35.177816539451058
 21
32.398910500487631
 31
0.0
  0
LINE
  5
196
  8
1BLACK
 10
35.177816539451058
 20
33.898910500487631
 30
0.0
 11
37.553816539451063
 21
33.898910500487631
 31
0.0
  0
LINE
  5
197
  8
1BLACK
 10
35.177816539451058
 20
33.648910500487631
 30
0.0
 11
37.553816539451063
 21
33.648910500487631
 31
0.0
  0
LINE
  5
198
  8
3BLUE
 10
35.177816539451058
 20
33.023910500487631
 30
0.0
 11
37.553816539451063
 21
33.023910500487631
 31
0.0
  0
LINE
  5
199
  8
3BLUE
 10
21.75
 20
50.57523727399164
 30
0.0
 11
20.5
 21
50.57523727399164
 31
0.0
  0
LINE
  5
19A
  8
3BLUE
 10
21.75
 20
52.951237273991651
 30
0.0
 11
20.5
 21
52.951237273991651
 31
0.0
  0
LINE
  5
19B
  8
1BLACK
 10
22.0
 20
52.951237273991651
 30
0.0
 11
22.0
 21
50.57523727399164
 31
0.0
  0
LINE
  5
19C
  8
1BLACK
 10
21.75
 20
52.951237273991651
 30
0.0
 11
21.75
 21
50.57523727399164
 31
0.0
  0
LINE
  5
19D
  8
3BLUE
 10
21.125
 20
52.951237273991651
 30
0.0
 11
21.125
 21
50.57523727399164
 31
0.0
  0
LINE
  5
19E
  8
3BLUE
 10
37.961912734469358
 20
48.980886570310801
 30
0.0
 11
38.211912734469358
 21
48.980886570310801
 31
0.0
  0
LINE
  5
19F
  8
3BLUE
 10
37.961912734469358
 20
46.605886570310787
 30
0.0
 11
38.211912734469358
 21
46.605886570310787
 31
0.0
  0
LINE
  5
1A0
  8
1BLACK
 10
37.553816539451063
 20
33.898910500487631
 30
0.0
 11
37.553816539451063
 21
33.648910500487631
 31
0.0
  0
LINE
  5
1A1
  8
1BLACK
 10
35.177816539451058
 20
33.898910500487631
 30
0.0
 11
35.177816539451058
 21
33.648910500487631
 31
0.0
  0
LINE
  5
1A2
  8
1BLACK
 10
15.06299999999999
 20
58.873237273991649
 30
0.0
 11
15.06299999999999
 21
59.123237273991649
 31
0.0
  0
LINE
  5
1A3
  8
1BLACK
 10
12.686999999999991
 20
59.123237273991649
 30
0.0
 11
12.686999999999991
 21
58.873237273991649
 31
0.0
  0
LINE
  5
1A4
  8
1BLACK
 10
21.75
 20
52.951237273991651
 30
0.0
 11
22.0
 21
52.951237273991651
 31
0.0
  0
LINE
  5
1A5
  8
1BLACK
 10
22.0
 20
50.57523727399164
 30
0.0
 11
21.75
 21
50.57523727399164
 31
0.0
  0
LINE
  5
1A6
  8
2RED
 10
23.5
 20
24.088910500487628
 30
0.0
 11
22.0
 21
24.088910500487628
 31
0.0
  0
LINE
  5
1A7
  8
2RED
 10
23.5
 20
25.708910500487629
 30
0.0
 11
22.0
 21
25.708910500487619
 31
0.0
  0
LINE
  5
1A8
  8
2RED
 10
23.5
 20
25.708910500487629
 30
0.0
 11
23.5
 21
24.088910500487628
 31
0.0
  0
LINE
  5
1A9
  8
1BLACK
 10
22.0
 20
25.708910500487619
 30
0.0
 11
22.0
 21
24.088910500487628
 31
0.0
  0
LINE
  5
1AA
  8
3BLUE
 10
21.75
 20
23.710910500487621
 30
0.0
 11
20.5
 21
23.710910500487621
 31
0.0
  0
LINE
  5
1AB
  8
3BLUE
 10
21.75
 20
26.086910500487619
 30
0.0
 11
20.5
 21
26.086910500487619
 31
0.0
  0
LINE
  5
1AC
  8
1BLACK
 10
22.0
 20
26.086910500487619
 30
0.0
 11
22.0
 21
23.710910500487621
 31
0.0
  0
LINE
  5
1AD
  8
1BLACK
 10
21.75
 20
26.086910500487619
 30
0.0
 11
21.75
 21
23.710910500487621
 31
0.0
  0
LINE
  5
1AE
  8
3BLUE
 10
21.125
 20
26.086910500487619
 30
0.0
 11
21.125
 21
23.710910500487621
 31
0.0
  0
LINE
  5
1AF
  8
1BLACK
 10
21.75
 20
26.086910500487619
 30
0.0
 11
22.0
 21
26.086910500487619
 31
0.0
  0
LINE
  5
1B0
  8
1BLACK
 10
22.0
 20
23.710910500487621
 30
0.0
 11
21.75
 21
23.710910500487621
 31
0.0
  0
CIRCLE
  5
1B1
  8
2RED
 10
36.305816539451058
 20
39.825225884436641
 30
0.0
 40
0.5
  0
LINE
  5
1B2
  8
2RED
 10
35.618316539451058
 20
40.637725884436641
 30
0.0
 11
36.993316539451058
 21
40.637725884436641
 31
0.0
  0
LINE
  5
1B3
  8
2RED
 10
35.618316539451058
 20
39.012725884436641
 30
0.0
 11
36.993316539451058
 21
39.012725884436641
 31
0.0
  0
LINE
  5
1B4
  8
2RED
 10
37.118316539451058
 20
40.512725884436641
 30
0.0
 11
36.993316539451058
 21
40.637725884436641
 31
0.0
  0
LINE
  5
1B5
  8
2RED
 10
35.618316539451058
 20
40.637725884436641
 30
0.0
 11
35.493316539451058
 21
40.512725884436641
 31
0.0
  0
LINE
  5
1B6
  8
2RED
 10
35.493316539451058
 20
39.137725884436641
 30
0.0
 11
35.618316539451058
 21
39.012725884436641
 31
0.0
  0
LINE
  5
1B7
  8
2RED
 10
36.993316539451058
 20
39.012725884436641
 30
0.0
 11
37.118316539451058
 21
39.137725884436641
 31
0.0
  0
LINE
  5
1B8
  8
2RED
 10
35.493316539451058
 20
39.137725884436641
 30
0.0
 11
35.493316539451058
 21
40.512725884436641
 31
0.0
  0
LINE
  5
1B9
  8
2RED
 10
37.118316539451058
 20
39.137725884436641
 30
0.0
 11
37.118316539451058
 21
40.512725884436641
 31
0.0
  0
LINE
  5
1BA
  8
1BLACK
 10
35.118316539451058
 20
41.012725884436641
 30
0.0
 11
37.493316539451058
 21
41.012725884436641
 31
0.0
  0
LINE
  5
1BB
  8
1BLACK
 10
35.118316539451058
 20
38.637725884436641
 30
0.0
 11
35.118316539451058
 21
41.012725884436641
 31
0.0
  0
LINE
  5
1BC
  8
1BLACK
 10
35.118316539451058
 20
38.637725884436641
 30
0.0
 11
37.493316539451058
 21
38.637725884436641
 31
0.0
  0
LINE
  5
1BD
  8
1BLACK
 10
37.493316539451058
 20
38.637725884436641
 30
0.0
 11
37.493316539451058
 21
41.012725884436641
 31
0.0
  0
CIRCLE
  5
1BE
  8
1BLACK
 10
35.368316539451058
 20
40.762725884436627
 30
0.0
 40
0.094
  0
CIRCLE
  5
1BF
  8
1BLACK
 10
37.243316539451058
 20
40.762725884436627
 30
0.0
 40
0.094
  0
CIRCLE
  5
1C0
  8
1BLACK
 10
37.243316539451058
 20
38.887725884436641
 30
0.0
 40
0.094
  0
CIRCLE
  5
1C1
  8
1BLACK
 10
35.368316539451058
 20
38.887725884436641
 30
0.0
 40
0.094
  0
LINE
  5
1C2
  8
3BLUE
 10
35.118316539451058
 20
41.325225884436641
 30
0.0
 11
35.118316539451058
 21
41.012725884436641
 31
0.0
  0
LINE
  5
1C3
  8
3BLUE
 10
35.118316539451058
 20
38.637725884436641
 30
0.0
 11
35.118316539451058
 21
38.325225884436641
 31
0.0
  0
LINE
  5
1C4
  8
2RED
 10
16.393955208339101
 20
35.398910500487631
 30
0.0
 11
16.393955208339101
 21
33.898910500487631
 31
0.0
  0
LINE
  5
1C5
  8
2RED
 10
14.893955208339101
 20
35.398910500487631
 30
0.0
 11
14.893955208339101
 21
33.898910500487631
 31
0.0
  0
LINE
  5
1C6
  8
2RED
 10
14.893955208339101
 20
35.398910500487631
 30
0.0
 11
16.393955208339101
 21
35.398910500487631
 31
0.0
  0
LINE
  5
1C7
  8
3BLUE
 10
16.891955208339098
 20
33.648910500487631
 30
0.0
 11
16.891955208339098
 21
32.398910500487631
 31
0.0
  0
LINE
  5
1C8
  8
3BLUE
 10
14.515955208339101
 20
33.648910500487631
 30
0.0
 11
14.515955208339101
 21
32.398910500487631
 31
0.0
  0
LINE
  5
1C9
  8
1BLACK
 10
14.515955208339101
 20
33.898910500487631
 30
0.0
 11
16.891955208339098
 21
33.898910500487631
 31
0.0
  0
LINE
  5
1CA
  8
1BLACK
 10
14.515955208339101
 20
33.648910500487631
 30
0.0
 11
16.891955208339098
 21
33.648910500487631
 31
0.0
  0
LINE
  5
1CB
  8
3BLUE
 10
14.515955208339101
 20
33.023910500487631
 30
0.0
 11
16.891955208339098
 21
33.023910500487631
 31
0.0
  0
LINE
  5
1CC
  8
1BLACK
 10
16.891955208339098
 20
33.898910500487631
 30
0.0
 11
16.891955208339098
 21
33.648910500487631
 31
0.0
  0
LINE
  5
1CD
  8
1BLACK
 10
14.515955208339101
 20
33.898910500487631
 30
0.0
 11
14.515955208339101
 21
33.648910500487631
 31
0.0
  0
CIRCLE
  5
1CE
  8
3BLUE
  6
CONTINUOUS
 10
36.305816539451058
 20
39.825225884436641
 30
0.0
 40
0.02
  0
CIRCLE
  5
1CF
  8
3BLUE
  6
CONTINUOUS
 10
35.695816539451059
 20
39.215225884436641
 30
0.0
 40
0.06
  0
CIRCLE
  5
1D0
  8
3BLUE
  6
CONTINUOUS
 10
36.915816539451058
 20
39.215225884436641
 30
0.0
 40
0.06
  0
CIRCLE
  5
1D1
  8
3BLUE
  6
CONTINUOUS
 10
36.915816539451058
 20
40.435225884436633
 30
0.0
 40
0.06
  0
CIRCLE
  5
1D2
  8
3BLUE
  6
CONTINUOUS
 10
35.695816539451059
 20
40.435225884436633
 30
0.0
 40
0.06
  0
CIRCLE
  5
1D3
  8
3BLUE
  6
CONTINUOUS
 10
39.56419874697972
 20
24.898910500487631
 30
0.0
 40
0.02
  0
CIRCLE
  5
1D4
  8
3BLUE
  6
CONTINUOUS
 10
38.954198746979721
 20
24.288910500487631
 30
0.0
 40
0.06
  0
CIRCLE
  5
1D5
  8
3BLUE
  6
CONTINUOUS
 10
40.174198746979719
 20
24.288910500487631
 30
0.0
 40
0.06
  0
CIRCLE
  5
1D6
  8
3BLUE
  6
CONTINUOUS
 10
40.174198746979719
 20
25.50891050048763
 30
0.0
 40
0.06
  0
CIRCLE
  5
1D7
  8
3BLUE
  6
CONTINUOUS
 10
38.954198746979721
 20
25.50891050048763
 30
0.0
 40
0.06
  0
CIRCLE
  5
1D8
  8
3BLUE
  6
CONTINUOUS
 10
42.149412734469358
 20
47.793386570310801
 30
0.0
 40
0.02
  0
CIRCLE
  5
1D9
  8
3BLUE
  6
CONTINUOUS
 10
41.539412734469359
 20
47.183386570310802
 30
0.0
 40
0.06
  0
CIRCLE
  5
1DA
  8
3BLUE
  6
CONTINUOUS
 10
42.759412734469358
 20
47.183386570310802
 30
0.0
 40
0.06
  0
CIRCLE
  5
1DB
  8
3BLUE
  6
CONTINUOUS
 10
42.759412734469358
 20
48.403386570310801
 30
0.0
 40
0.06
  0
CIRCLE
  5
1DC
  8
3BLUE
  6
CONTINUOUS
 10
41.539412734469359
 20
48.403386570310801
 30
0.0
 40
0.06
  0
CIRCLE
  5
1DD
  8
1BLACK
 10
40.61419874697971
 20
18.898910500487631
 30
0.0
 40
1.0
  0
CIRCLE
  5
1DE
  8
1BLACK
 10
40.61419874697971
 20
18.898910500487631
 30
0.0
 40
0.03
  0
LINE
  5
1DF
  8
1BLACK
 10
34.98919874697971
 20
31.773910500487631
 30
0.0
 11
34.98919874697971
 21
32.398910500487631
 31
0.0
  0
LINE
  5
1E0
  8
1BLACK
 10
38.48919874697971
 20
21.648910500487631
 30
0.0
 11
35.61419874697971
 21
17.023910500487631
 31
0.0
  0
LINE
  5
1E1
  8
1BLACK
 10
7.25
 20
56.373237273991649
 30
0.0
 11
20.5
 21
56.373237273991649
 31
0.0
  0
LINE
  5
1E2
  8
3BLUE
 10
36.086912734469358
 20
49.980886570310801
 30
0.0
 11
36.711912734469358
 21
49.980886570310801
 31
0.0
  0
LINE
  5
1E3
  8
3BLUE
 10
36.539558054601969
 20
49.730886570310801
 30
0.0
 11
36.711912734469358
 21
49.730886570310801
 31
0.0
  0
LINE
  5
1E4
  8
3BLUE
 10
36.539558054601969
 20
49.230886570310801
 30
0.0
 11
36.711912734469358
 21
49.230886570310801
 31
0.0
  0
LINE
  5
1E5
  8
3BLUE
 10
36.086912734469358
 20
49.540886570310803
 30
0.0
 11
36.539558054601969
 21
49.540886570310803
 31
0.0
  0
LINE
  5
1E6
  8
3BLUE
 10
36.086912734469358
 20
49.420886570310799
 30
0.0
 11
36.539558054601969
 21
49.420886570310799
 31
0.0
  0
LINE
  5
1E7
  8
3BLUE
 10
36.539558054601969
 20
49.230886570310801
 30
0.0
 11
36.539558054601969
 21
49.730886570310801
 31
0.0
  0
LINE
  5
1E8
  8
3BLUE
 10
36.086912734469358
 20
45.605886570310801
 30
0.0
 11
36.711912734469358
 21
45.605886570310801
 31
0.0
  0
LINE
  5
1E9
  8
3BLUE
 10
36.539558054601969
 20
45.855886570310801
 30
0.0
 11
36.711912734469358
 21
45.855886570310801
 31
0.0
  0
LINE
  5
1EA
  8
3BLUE
 10
36.539558054601969
 20
46.355886570310801
 30
0.0
 11
36.711912734469358
 21
46.355886570310801
 31
0.0
  0
LINE
  5
1EB
  8
3BLUE
 10
36.086912734469358
 20
46.045886570310792
 30
0.0
 11
36.539558054601969
 21
46.045886570310792
 31
0.0
  0
LINE
  5
1EC
  8
3BLUE
 10
36.086912734469358
 20
46.165886570310803
 30
0.0
 11
36.539558054601969
 21
46.165886570310803
 31
0.0
  0
LINE
  5
1ED
  8
3BLUE
 10
36.539558054601969
 20
46.355886570310801
 30
0.0
 11
36.539558054601969
 21
45.855886570310801
 31
0.0
  0
LINE
  5
1EE
  8
3BLUE
 10
40.836912734469372
 20
45.605886570310801
 30
0.0
 11
40.836912734469372
 21
49.980886570310801
 31
0.0
  0
LINE
  5
1EF
  8
3BLUE
 10
43.461912734469358
 20
45.605886570310801
 30
0.0
 11
43.461912734469358
 21
49.980886570310801
 31
0.0
  0
LINE
  5
1F0
  8
3BLUE
 10
40.836912734469372
 20
49.980886570310801
 30
0.0
 11
43.461912734469358
 21
49.980886570310801
 31
0.0
  0
LINE
  5
1F1
  8
3BLUE
 10
43.461912734469358
 20
45.605886570310801
 30
0.0
 11
40.836912734469372
 21
45.605886570310801
 31
0.0
  0
CIRCLE
  5
1F2
  8
3BLUE
 10
42.961912734469358
 20
49.480886570310801
 30
0.0
 40
0.062
  0
CIRCLE
  5
1F3
  8
3BLUE
 10
41.336912734469358
 20
49.480886570310801
 30
0.0
 40
0.062
  0
CIRCLE
  5
1F4
  8
3BLUE
 10
41.336912734469358
 20
46.105886570310801
 30
0.0
 40
0.062
  0
CIRCLE
  5
1F5
  8
3BLUE
 10
42.961912734469358
 20
46.105886570310801
 30
0.0
 40
0.25
  0
CIRCLE
  5
1F6
  8
3BLUE
 10
41.336912734469358
 20
49.480886570310801
 30
0.0
 40
0.25
  0
CIRCLE
  5
1F7
  8
3BLUE
 10
42.961912734469358
 20
49.480886570310801
 30
0.0
 40
0.25
  0
CIRCLE
  5
1F8
  8
3BLUE
 10
41.336912734469358
 20
46.105886570310801
 30
0.0
 40
0.25
  0
CIRCLE
  5
1F9
  8
3BLUE
 10
42.961912734469358
 20
46.105886570310801
 30
0.0
 40
0.062
  0
LINE
  5
1FA
  8
3BLUE
 10
40.59458942595802
 20
55.662500070679059
 30
0.0
 11
38.59458942595802
 21
55.662500070679059
 31
0.0
  0
LINE
  5
1FB
  8
3BLUE
 10
40.59458942595802
 20
52.162500070679052
 30
0.0
 11
38.59458942595802
 21
52.162500070679052
 31
0.0
  0
LINE
  5
1FC
  8
3BLUE
 10
38.59458942595802
 20
55.662500070679059
 30
0.0
 11
38.59458942595802
 21
52.162500070679052
 31
0.0
  0
LINE
  5
1FD
  8
3BLUE
 10
40.59458942595802
 20
55.662500070679059
 30
0.0
 11
40.59458942595802
 21
52.162500070679052
 31
0.0
  0
CIRCLE
  5
1FE
  8
3BLUE
 10
39.094589425958027
 20
52.662500070679059
 30
0.0
 40
0.062
  0
CIRCLE
  5
1FF
  8
3BLUE
 10
39.094589425958027
 20
52.662500070679059
 30
0.0
 40
0.25
  0
CIRCLE
  5
200
  8
3BLUE
 10
40.09458942595802
 20
52.662500070679059
 30
0.0
 40
0.062
  0
CIRCLE
  5
201
  8
3BLUE
 10
40.09458942595802
 20
52.662500070679059
 30
0.0
 40
0.25
  0
CIRCLE
  5
202
  8
3BLUE
 10
40.09458942595802
 20
55.162500070679059
 30
0.0
 40
0.062
  0
CIRCLE
  5
203
  8
3BLUE
 10
40.09458942595802
 20
55.162500070679059
 30
0.0
 40
0.25
  0
CIRCLE
  5
204
  8
3BLUE
 10
39.094589425958027
 20
55.162500070679059
 30
0.0
 40
0.062
  0
CIRCLE
  5
205
  8
3BLUE
 10
39.094589425958027
 20
55.162500070679059
 30
0.0
 40
0.25
  0
LINE
  5
206
  8
3BLUE
 10
42.095726132315008
 20
52.412500070679052
 30
0.0
 11
41.923371452447618
 21
52.412500070679052
 31
0.0
  0
LINE
  5
207
  8
3BLUE
 10
42.095726132315008
 20
52.912500070679052
 30
0.0
 11
41.923371452447618
 21
52.912500070679052
 31
0.0
  0
LINE
  5
208
  8
3BLUE
 10
42.673371452447618
 20
52.602500070679049
 30
0.0
 11
42.095726132315008
 21
52.602500070679049
 31
0.0
  0
LINE
  5
209
  8
3BLUE
 10
42.673371452447618
 20
52.722500070679047
 30
0.0
 11
42.095726132315008
 21
52.722500070679047
 31
0.0
  0
LINE
  5
20A
  8
3BLUE
 10
42.095726132315008
 20
52.912500070679052
 30
0.0
 11
42.095726132315008
 21
52.412500070679052
 31
0.0
  0
LINE
  5
20B
  8
3BLUE
 10
42.095726132315008
 20
55.412500070679052
 30
0.0
 11
41.923371452447618
 21
55.412500070679052
 31
0.0
  0
LINE
  5
20C
  8
3BLUE
 10
42.095726132315008
 20
54.912500070679052
 30
0.0
 11
41.923371452447618
 21
54.912500070679052
 31
0.0
  0
LINE
  5
20D
  8
3BLUE
 10
42.673371452447618
 20
55.222500070679047
 30
0.0
 11
42.095726132315008
 21
55.222500070679047
 31
0.0
  0
LINE
  5
20E
  8
3BLUE
 10
42.673371452447618
 20
55.102500070679049
 30
0.0
 11
42.095726132315008
 21
55.102500070679049
 31
0.0
  0
LINE
  5
20F
  8
3BLUE
 10
42.095726132315008
 20
54.912500070679052
 30
0.0
 11
42.095726132315008
 21
55.412500070679052
 31
0.0
  0
LINE
  5
210
  8
3BLUE
 10
42.673371452447618
 20
54.162500070679052
 30
0.0
 11
42.673371452447618
 21
53.662500070679052
 31
0.0
  0
LINE
  5
211
  8
3BLUE
 10
41.923371452447618
 20
55.662500070679052
 30
0.0
 11
41.923371452447618
 21
52.162500070679052
 31
0.0
  0
LINE
  5
212
  8
3BLUE
 10
42.673371452447618
 20
52.162500070679052
 30
0.0
 11
41.923371452447618
 21
52.162500070679052
 31
0.0
  0
LINE
  5
213
  8
3BLUE
 10
42.673371452447618
 20
55.662500070679052
 30
0.0
 11
41.923371452447618
 21
55.662500070679052
 31
0.0
  0
CIRCLE
  5
214
  8
2RED
 10
42.423371452447618
 20
53.912500070679052
 30
0.0
 40
0.125
  0
ARC
  5
215
  8
2RED
 10
42.423371452447618
 20
53.912500070679052
 30
0.0
 40
0.25
 50
223.6142769257269
 51
136.3857230742731
  0
LINE
  5
216
  8
3BLUE
 10
42.242371452447628
 20
53.662500070679052
 30
0.0
 11
42.242371452447628
 21
54.162500070679052
 31
0.0
  0
LINE
  5
217
  8
1BLACK
 10
35.086912734469358
 20
48.418386570310801
 30
0.0
 11
33.899412734469358
 21
48.418386570310801
 31
0.0
  0
LINE
  5
218
  8
1BLACK
 10
33.899412734469358
 20
47.168386570310801
 30
0.0
 11
35.086912734469358
 21
47.168386570310801
 31
0.0
  0
ARC
  5
219
  8
1BLACK
 10
33.899412734469358
 20
47.793386570310801
 30
0.0
 40
0.6250000000000001
 50
90.000000000000057
 51
270.0
  0
LINE
  5
21A
  8
1BLACK
 10
23.893955208339118
 20
47.598237273991643
 30
0.0
 11
23.893955208339118
 21
46.096640090310267
 31
0.0
  0
LINE
  5
21B
  8
1BLACK
 10
29.013955208339119
 20
47.598237273991643
 30
0.0
 11
29.013955208339119
 21
46.096640090310267
 31
0.0
  0
ARC
  5
21C
  8
1BLACK
 10
26.453955208339121
 20
47.660737273991657
 30
0.0
 40
3.0
 50
211.42390648584589
 51
328.57609351415402
  0
LINE
  5
21D
  8
1BLACK
 10
23.893955208339118
 20
46.355241689430208
 30
0.0
 11
25.449914074079039
 21
46.355241689430208
 31
0.0
  0
ARC
  5
21E
  8
1BLACK
 10
26.324914074079039
 20
46.355241689430208
 30
0.0
 40
0.8750000000000001
 50
90.0
 51
270.0
  0
LINE
  5
21F
  8
1BLACK
 10
24.268955208339118
 20
45.902596369297612
 30
0.0
 11
24.268955208339118
 21
45.605068283127601
 31
0.0
  0
LINE
  5
220
  8
1BLACK
 10
24.768955208339129
 20
45.902596369297612
 30
0.0
 11
24.768955208339129
 21
45.178646421504581
 31
0.0
  0
LINE
  5
221
  8
1BLACK
 10
24.45895520833913
 20
47.598237273991643
 30
0.0
 11
24.45895520833913
 21
45.902596369297612
 31
0.0
  0
LINE
  5
222
  8
1BLACK
 10
24.578955208339131
 20
47.598237273991643
 30
0.0
 11
24.578955208339131
 21
45.902596369297612
 31
0.0
  0
LINE
  5
223
  8
1BLACK
 10
28.63853159786532
 20
45.902596369297612
 30
0.0
 11
28.63847063171869
 21
45.604621278456108
 31
0.0
  0
LINE
  5
224
  8
1BLACK
 10
28.138531587399871
 20
45.902596369297612
 30
0.0
 11
28.13838339563906
 21
45.178301726499747
 31
0.0
  0
LINE
  5
225
  8
1BLACK
 10
28.328878522026969
 20
47.598237273991643
 30
0.0
 11
28.328531591376741
 21
45.902596369297612
 31
0.0
  0
LINE
  5
226
  8
1BLACK
 10
28.138531516871659
 20
45.902251659139871
 30
0.0
 11
28.63853150640622
 21
45.902149358398603
 31
0.0
  0
LINE
  5
227
  8
1BLACK
 10
24.768955208339129
 20
45.902596369297612
 30
0.0
 11
24.268955208339118
 21
45.902596369297612
 31
0.0
  0
LINE
  5
228
  8
1BLACK
 10
27.449914074079039
 20
46.355241689430208
 30
0.0
 11
29.013955208339119
 21
46.355241689430208
 31
0.0
  0
CIRCLE
  5
229
  8
1BLACK
  6
CONTINUOUS
 10
15.69891407407904
 20
46.355241689430208
 30
0.0
 40
0.25
  0
LINE
  5
22A
  8
3BLUE
 10
11.687499999999989
 20
55.748237273991649
 30
0.0
 11
16.0625
 21
55.748237273991649
 31
0.0
  0
LINE
  5
22B
  8
3BLUE
 10
16.0625
 20
56.373237273991649
 30
0.0
 11
16.0625
 21
55.748237273991649
 31
0.0
  0
LINE
  5
22C
  8
3BLUE
 10
15.8125
 20
55.920591953859038
 30
0.0
 11
15.8125
 21
55.748237273991649
 31
0.0
  0
LINE
  5
22D
  8
3BLUE
 10
15.3125
 20
55.920591953859038
 30
0.0
 11
15.3125
 21
55.748237273991649
 31
0.0
  0
LINE
  5
22E
  8
3BLUE
 10
15.6225
 20
56.373237273991649
 30
0.0
 11
15.6225
 21
55.920591953859038
 31
0.0
  0
LINE
  5
22F
  8
3BLUE
 10
15.502499999999991
 20
56.373237273991649
 30
0.0
 11
15.502499999999991
 21
55.920591953859038
 31
0.0
  0
LINE
  5
230
  8
3BLUE
 10
15.3125
 20
55.920591953859038
 30
0.0
 11
15.8125
 21
55.920591953859038
 31
0.0
  0
LINE
  5
231
  8
3BLUE
 10
11.687499999999989
 20
56.373237273991649
 30
0.0
 11
11.687499999999989
 21
55.748237273991649
 31
0.0
  0
LINE
  5
232
  8
3BLUE
 10
11.9375
 20
55.920591953859038
 30
0.0
 11
11.9375
 21
55.748237273991649
 31
0.0
  0
LINE
  5
233
  8
3BLUE
 10
12.4375
 20
55.920591953859038
 30
0.0
 11
12.4375
 21
55.748237273991649
 31
0.0
  0
LINE
  5
234
  8
3BLUE
 10
12.127499999999991
 20
56.373237273991649
 30
0.0
 11
12.127499999999991
 21
55.920591953859038
 31
0.0
  0
LINE
  5
235
  8
3BLUE
 10
12.2475
 20
56.373237273991649
 30
0.0
 11
12.2475
 21
55.920591953859038
 31
0.0
  0
LINE
  5
236
  8
3BLUE
 10
12.4375
 20
55.920591953859038
 30
0.0
 11
11.9375
 21
55.920591953859038
 31
0.0
  0
LINE
  5
237
  8
1BLACK
 10
23.893955208339118
 20
47.598237273991643
 30
0.0
 11
29.013955208339119
 21
47.598237273991643
 31
0.0
  0
ARC
  5
238
  8
1BLACK
 10
26.574914074079039
 20
46.355241689430208
 30
0.0
 40
0.8750000000000001
 50
270.0
 51
90.000000000000071
  0
LINE
  5
239
  8
1BLACK
 10
26.324914074079039
 20
47.230241689430208
 30
0.0
 11
26.574914074079039
 21
47.230241689430208
 31
0.0
  0
LINE
  5
23A
  8
1BLACK
 10
26.324914074079039
 20
45.480241689430223
 30
0.0
 11
26.574914074079039
 21
45.480241689430223
 31
0.0
  0
ARC
  5
23B
  8
1BLACK
 10
15.57391407407904
 20
46.355241689430208
 30
0.0
 40
0.8750000000000001
 50
90.0
 51
270.0
  0
ARC
  5
23C
  8
1BLACK
 10
15.82391407407904
 20
46.355241689430208
 30
0.0
 40
0.8750000000000001
 50
270.0
 51
90.000000000000071
  0
LINE
  5
23D
  8
1BLACK
 10
15.57391407407904
 20
47.230241689430208
 30
0.0
 11
15.82391407407904
 21
47.230241689430208
 31
0.0
  0
LINE
  5
23E
  8
1BLACK
 10
15.57391407407904
 20
45.480241689430223
 30
0.0
 11
15.82391407407904
 21
45.480241689430223
 31
0.0
  0
LINE
  5
23F
  8
2RED
 10
18.323955208339122
 20
23.273910500487631
 30
0.0
 11
20.440000000000001
 21
23.273910500487631
 31
0.0
  0
LINE
  5
240
  8
2RED
 10
18.323955208339122
 20
21.898910500487631
 30
0.0
 11
20.440000000000001
 21
21.898910500487631
 31
0.0
  0
LINE
  5
241
  8
2RED
 10
18.323955208339122
 20
27.773910500487631
 30
0.0
 11
20.440000000000001
 21
27.773910500487631
 31
0.0
  0
LINE
  5
242
  8
2RED
 10
18.323955208339122
 20
26.398910500487631
 30
0.0
 11
20.440000000000001
 21
26.398910500487631
 31
0.0
  0
LINE
  5
243
  8
2RED
 10
20.440000000000001
 20
27.773910500487631
 30
0.0
 11
20.440000000000001
 21
26.398910500487631
 31
0.0
  0
LINE
  5
244
  8
2RED
 10
20.440000000000001
 20
23.273910500487631
 30
0.0
 11
20.440000000000001
 21
21.898910500487631
 31
0.0
  0
LINE
  5
245
  8
2RED
 10
7.3099999999999978
 20
27.773910500487631
 30
0.0
 11
13.08395520833907
 21
27.773910500487631
 31
0.0
  0
LINE
  5
246
  8
2RED
 10
7.3099999999999978
 20
27.773910500487631
 30
0.0
 11
7.3099999999999978
 21
26.398910500487631
 31
0.0
  0
LINE
  5
247
  8
2RED
 10
7.3099999999999978
 20
26.398910500487631
 30
0.0
 11
13.08395520833907
 21
26.398910500487631
 31
0.0
  0
LINE
  5
248
  8
2RED
 10
7.3099999999999978
 20
23.27391050048762
 30
0.0
 11
7.3099999999999978
 21
21.89891050048762
 31
0.0
  0
LINE
  5
249
  8
2RED
 10
7.3099999999999978
 20
23.27391050048762
 30
0.0
 11
13.083955208339059
 21
23.27391050048762
 31
0.0
  0
LINE
  5
24A
  8
2RED
 10
7.3099999999999978
 20
21.89891050048762
 30
0.0
 11
13.083955208339059
 21
21.89891050048762
 31
0.0
  0
LINE
  5
24B
  8
3BLUE
 10
46.489198746979717
 20
14.460910500487641
 30
0.0
 11
45.239198746979717
 21
14.460910500487641
 31
0.0
  0
LINE
  5
24C
  8
3BLUE
 10
46.489198746979717
 20
16.83691050048764
 30
0.0
 11
45.239198746979717
 21
16.83691050048764
 31
0.0
  0
LINE
  5
24D
  8
1BLACK
 10
46.73919874697971
 20
16.83691050048764
 30
0.0
 11
46.73919874697971
 21
14.460910500487641
 31
0.0
  0
LINE
  5
24E
  8
1BLACK
 10
46.489198746979717
 20
16.83691050048764
 30
0.0
 11
46.489198746979717
 21
14.460910500487641
 31
0.0
  0
LINE
  5
24F
  8
3BLUE
 10
45.864198746979717
 20
16.83691050048764
 30
0.0
 11
45.864198746979717
 21
14.460910500487641
 31
0.0
  0
LINE
  5
250
  8
1BLACK
 10
46.489198746979717
 20
14.460910500487641
 30
0.0
 11
46.73919874697971
 21
14.460910500487641
 31
0.0
  0
LINE
  5
251
  8
1BLACK
 10
46.73919874697971
 20
16.83691050048764
 30
0.0
 11
46.489198746979717
 21
16.83691050048764
 31
0.0
  0
ENDSEC
  0
EOF
